<svg width="758" height="1000" viewBox="0 0 758 1000" fill="none" xmlns="http://www.w3.org/2000/svg">
<g clip-path="url(#clip0_69_226)">
<path d="M802.577 693.774C801.079 677.863 794.882 662.508 785.198 649.678C780.291 643.187 774.507 637.328 767.947 632.403C765.133 630.282 762.137 628.362 759.064 626.594C756.017 624.801 752.866 623.159 749.716 621.543C746.462 619.876 743.208 618.209 739.98 616.467C737.114 614.901 734.273 613.259 731.562 611.441C728.85 609.622 726.268 607.652 723.892 605.43C722.601 604.243 721.413 602.98 720.277 601.642C714.26 594.595 710.335 585.554 712.065 576.26C711.807 577.623 711.161 579.215 710.774 580.503C709.792 583.937 708.837 587.372 707.907 590.832C706.59 595.681 704.963 600.53 704.059 605.48C702.123 615.861 707.184 625.761 714.389 633.161C714.286 633.363 714.182 633.565 714.079 633.767C712.633 636.697 711.368 639.727 710.283 642.834C709.947 643.819 709.637 644.778 709.302 645.763C709.405 645.157 709.095 646.092 708.424 648.567C706.125 656.118 704.214 663.846 702.226 671.474C700.392 678.469 698.92 685.44 699.799 692.688C701.167 703.725 707.391 714.459 718.004 719.207C723.995 721.884 730.916 722.995 737.475 723.122C743.854 723.223 750.387 722.162 756.043 719.106C767.896 712.716 773.112 699.457 777.373 687.663C778.07 685.743 778.664 683.773 779.207 681.778C785.146 690.314 789.614 699.861 792.222 709.938C795.915 724.182 795.269 738.755 792.532 753.1C792.17 754.969 791.757 756.888 791.318 758.783C789.536 764.516 787.548 770.426 785.533 776.133C783.364 782.169 781.092 788.18 778.664 794.141C778.07 795.631 777.451 797.096 776.831 798.56C776.676 798.964 776.495 799.369 776.366 799.773C772.802 784.821 764.668 770.754 752.608 760.803C745.842 755.222 737.914 751.231 730.012 747.418C720.948 743.048 711.858 738.704 702.768 734.36C684.614 725.647 666.434 716.959 648.28 708.246C640.197 704.357 632.14 700.29 625.168 694.633C618.893 689.557 613.366 683.495 609.131 676.651C604.56 669.251 601.539 660.841 601.255 652.153C601.023 645.132 601.229 638.06 602.469 631.14L621.036 638.591L636.117 602.627L599.344 587.877L584.263 623.841L601.849 630.888C601.591 631.898 601.307 632.908 601.048 633.893C598.569 643.187 595.677 652.481 594.153 662.003C593.017 669.074 592.759 676.626 593.379 683.748C594.877 700.998 606.575 716.404 620.494 726.405C628.783 732.365 638.286 736.532 647.505 740.927C657.37 745.65 667.261 750.398 677.125 755.121C687.119 759.919 697.113 764.692 707.107 769.491C716.532 774.012 726.242 778.23 735.255 783.558C752.221 793.636 764.358 810.885 768.903 829.701C769.11 828.943 769.316 828.16 769.549 827.402C769.781 826.695 769.988 826.165 770.013 826.165C770.349 824.978 770.685 823.766 771.021 822.579C778.2 804.647 784.139 786.337 789.355 767.774C793.513 752.898 797.981 737.947 800.795 722.768C802.577 713.247 803.481 703.498 802.577 693.825V693.774ZM775.23 679.732C770.452 686.4 763.764 691.148 755.578 692.966C747.056 694.835 737.475 693.976 729.238 691.224C721.491 688.622 715.422 683.319 711.729 676.196C709.095 671.095 707.804 665.589 707.623 660.007C707.701 659.881 707.752 659.755 707.83 659.603C709.689 656.244 711.6 652.532 714.415 649.829C719.321 645.081 727.585 645.132 734.144 646.875C739.98 649.931 745.971 652.759 751.575 656.068C761.233 661.75 769.652 669.251 776.418 677.964C776.03 678.57 775.643 679.151 775.204 679.732H775.23Z" fill="#C7B08A" fill-opacity="0.2"/>
<path d="M894.536 444.248C891.437 433.186 883.457 424.751 874.057 418.31C877.44 406.516 880.72 394.671 883.664 382.75C886.324 372.092 889.009 361.005 889.293 349.994C889.577 338.881 885.497 327.011 877.337 319.131C872.637 314.585 866.672 311.731 860.113 310.873C852.598 309.888 844.954 311.226 837.698 313.07C823.83 316.631 810.453 322.945 799.995 332.668C795.011 337.29 790.776 342.695 787.548 348.63C785.921 351.61 784.578 354.717 783.493 357.924C782.977 359.465 782.486 361.005 781.996 362.571L775.204 387.625C775.049 388.256 774.894 388.862 774.739 389.494C773.112 396.035 771.769 403.738 774.068 410.279C776.392 416.947 783.313 420.886 789.639 423.387C803.145 428.741 818.2 428.589 832.145 432.327C846.142 436.09 860.242 442.228 871.372 451.496C876.381 455.638 880.772 460.588 883.741 466.347C887.124 472.888 888.338 480.212 888.08 487.511C888.002 489.683 887.796 491.855 887.486 494.027C887.434 494.204 887.382 494.355 887.305 494.507C882.502 507.918 877.001 521.101 871.423 534.209C867.756 523.096 856.755 514.459 848.156 507.135C835.193 496.123 821.609 485.844 807.484 476.298C781.143 458.492 751.265 442.202 735.461 413.689C728.36 400.859 725.596 386.69 726.81 372.421C734.661 355.474 747.108 340.977 761.233 328.552C769.471 321.303 778.303 314.812 787.264 308.448C796.276 302.033 805.159 295.391 811.977 286.627C819.543 276.904 824.372 265.791 827.859 254.123C829.821 247.506 831.603 240.813 833.385 234.146C833.979 231.948 834.857 229.65 835.141 227.402C835.322 225.912 834.65 228.665 834.624 228.842C834.418 229.549 833.772 231.443 833.333 232.757C828.814 245.309 821.79 257.027 811.874 266.221C801.648 275.691 789.459 282.94 778.535 291.602C757.024 308.65 738.043 329.537 729.986 355.954C726.888 366.132 724.099 376.462 721.491 386.791C720.587 390.327 719.812 393.888 719.295 397.525C718.34 404.218 718.211 411.011 719.063 417.729C720.742 430.686 726.371 442.733 734.196 453.189C751.394 476.197 777.244 490.34 800.718 506.301C813.191 514.787 825.25 523.879 836.845 533.502C842.268 538.022 847.769 542.569 852.753 547.594C857.117 552.014 861.171 557.015 863.289 562.874C863.34 563.026 863.392 563.152 863.444 563.303C864.373 566.031 865.045 570.855 864.709 571.84C865.045 570.779 865.742 568.456 866 567.597C866.982 564.162 867.937 560.727 868.867 557.267C869.796 553.833 870.752 550.373 871.656 546.938C872.017 545.599 872.663 544.033 872.715 542.644C872.715 542.139 872.715 541.659 872.715 541.154C876.046 532.845 879.196 524.485 881.985 516.025C884.18 509.357 886.065 502.614 887.951 495.871C890.378 487.132 893.012 478.368 894.742 469.453C896.343 461.144 896.886 452.481 894.561 444.223L894.536 444.248ZM863.444 412.047C855.593 408.057 847.304 404.95 838.756 402.753C830.415 400.606 821.868 399.697 813.397 398.257C804.617 396.767 795.527 394.52 788.348 389.14C784.63 386.337 782.125 382.75 781.324 378.179C781.169 377.27 781.066 376.335 780.988 375.401C791.086 358.909 808.801 348.024 827.755 342.796C839.324 339.614 852.701 337.543 863.547 343.932C872.275 349.059 877.724 358.328 880.048 367.824C882.373 377.371 880.901 387.094 879.093 396.616C878.628 399.066 878.112 401.515 877.544 403.965C877.182 405.026 876.846 406.087 876.459 407.147C875.245 410.633 874.264 414.219 873.308 417.831C870.132 415.684 866.775 413.79 863.418 412.072L863.444 412.047Z" fill="#C7B08A" fill-opacity="0.2"/>
<path d="M801.828 178.23C793.436 158.379 775.023 145.523 756.843 134.815C744.706 127.668 731.846 121.834 720.019 114.156C703.078 103.271 687.403 87.9151 682.626 67.9379C682.471 67.2812 682.342 66.6246 682.213 65.9427C680.534 57.2295 680.508 47.0261 681.877 38.0604C681.05 43.4903 678.675 49.2234 677.306 54.6534C675.86 60.4369 674.62 66.271 673.897 72.1808C672.451 83.9247 673.355 95.4413 677.668 106.529C677.719 106.63 677.745 106.756 677.797 106.857C657.732 113.777 644.742 132.315 639.061 151.661C638.777 152.62 638.519 153.555 638.261 154.514C636.04 163.127 633.509 171.688 631.495 180.376C629.248 190.15 628.757 201.768 633.277 211.037C637.486 219.598 645.362 226.039 653.238 231.317C665.763 239.752 679.449 244.93 693.678 248.39C692.258 248.036 688.694 251.825 687.558 252.633C675.602 261.043 661.993 267.332 647.712 270.918C638.131 273.317 628.551 273.949 618.712 274.227C617.24 274.277 596.994 274.883 596.994 274.353C596.968 257.987 593.973 241.52 586.303 226.872C581.397 217.502 574.76 209.117 568.33 200.732C561.719 192.12 555.005 183.559 547.361 175.78C533.571 161.788 516.372 150.802 505.242 134.436C495.92 120.722 491.504 104.054 492.382 87.6626C502.608 68.7461 521.847 55.0575 543.565 51.2944C542.609 54.9312 541.68 58.5427 540.802 62.1796C539.278 68.3672 538.452 74.7064 538.477 81.0708C538.477 93.5219 541.654 106.099 548.265 116.782C554.979 127.592 565.412 135.598 575.044 143.806C579.047 147.216 582.817 150.448 585.761 154.792C588.679 159.111 591.055 163.783 593.121 168.531C595.574 174.163 597.614 180.023 598.957 186.008C599.912 190.251 600.868 195.58 600.48 200.101C600.48 200.025 600.532 199.924 600.558 199.848C601.565 196.54 602.391 193.181 603.295 189.872C604.457 185.629 605.697 181.412 606.781 177.144C607.866 173.406 608.176 172.118 607.711 173.279C607.711 173.204 607.737 173.128 607.763 173.052C608.176 171.208 608.357 169.365 608.357 167.496C608.331 162.95 607.427 158.404 606.265 154.009C604.767 148.302 602.753 142.619 600.222 137.164C599.68 135.977 602.262 133.653 602.908 132.744C604.406 130.623 605.697 128.324 606.936 126.051C612.179 116.454 615.355 105.922 618.273 95.4666C621.191 84.935 623.154 73.873 621.733 62.9625C621.165 58.6438 620.055 54.4008 618.325 50.4104C610.448 32.1505 589.247 23.3363 570.189 21.7452C553.378 20.3561 536.205 24.5233 522.363 34.0447C514.41 39.5252 507.695 46.6221 502.66 54.7544C498.167 62.0028 495.119 70.0846 492.95 78.2675C490.161 88.7486 486.365 99.1034 485.074 109.913C482.569 130.875 488.069 152.721 501.627 169.314C507.695 176.765 515.21 182.851 522.312 189.393C531.169 197.575 540.414 205.531 548.187 214.674C554.721 222.377 560.996 230.282 566.806 238.49C574.941 249.981 582.326 261.599 585.632 275.363C583.643 275.792 581.603 276.045 579.666 276.676C573.83 278.267 568.097 280.768 563.527 284.708C559.007 288.572 555.754 293.547 553.249 298.851C550.279 305.215 548.368 311.984 546.431 318.702C543.9 327.617 541.396 336.558 539.123 345.523C538.348 348.529 537.677 351.585 537.341 354.666C536.747 359.995 537.186 365.627 539.898 370.4C542.609 375.148 547.232 378.179 552.061 380.604C556.864 383.003 561.848 385.049 566.47 387.801C566.522 387.827 566.574 387.852 566.6 387.877C565.308 392.701 564.095 397.55 562.829 402.349C560.531 411.138 558.465 420.331 559.601 429.448C560.505 436.646 564.017 443.844 570.912 447.178C576.697 449.981 583.462 448.769 587.723 444.021C589.634 441.899 591.003 439.323 591.984 436.671C592.966 434.045 593.689 431.317 594.438 428.615C596.581 421.013 598.724 413.386 600.661 405.733C602.314 399.167 602.727 392.802 600.325 386.337C596.658 376.436 588.705 368.228 579.796 362.041C585.141 342.796 591.003 323.324 594.334 303.548C605.542 303.498 616.698 304.155 627.828 302.538C639.113 300.922 650.088 297.538 660.391 292.789C680.482 283.546 697.913 269.251 711.858 252.431C711.987 252.279 712.117 252.128 712.246 251.976C735.978 255.638 760.562 256.497 783.648 261.144C787.186 261.851 792.067 263.089 792.609 267.231C792.506 266.448 793.797 263.316 793.9 262.988C794.882 259.553 795.837 256.118 796.767 252.658C797.697 249.223 798.652 245.763 799.556 242.329C799.866 241.142 800.77 239.222 800.615 238.01C800.382 236.217 799.349 234.929 797.903 233.994C797.413 233.666 801.364 222.073 801.699 220.76C802.965 216.063 804.049 211.289 804.746 206.465C806.115 196.793 805.65 187.246 801.802 178.154L801.828 178.23ZM546.483 50.9155C558.181 49.4254 570.086 51.2186 581.19 55.0322C592.191 58.8206 603.321 65.3113 608.279 76.0955C609.648 79.0756 610.784 82.2073 611.972 85.2633C612.85 87.5363 613.702 89.8346 614.193 92.2086C614.528 93.8755 614.683 95.5676 614.709 97.285C609.312 107.109 602.34 116.126 596.968 125.95C596.503 126.784 596.219 128.072 595.961 129.132C595.393 128.173 594.799 127.238 594.205 126.329C588.627 117.818 579.666 112.06 572.152 105.316C567.426 101.073 562.726 96.6789 558.956 91.5772C555.495 86.9049 552.758 81.7022 550.744 76.2723C547.748 68.1399 546.38 59.5025 546.483 50.8903V50.9155ZM592.94 417.325C592.604 417.553 592.243 417.78 591.855 417.982C587.336 420.432 581.732 419.851 577.42 417.224C568.614 411.82 566.806 401.616 567.4 391.918C567.839 391.059 568.304 390.176 568.769 389.317C572.591 391.792 576.232 394.57 579.563 397.651C585.348 403.031 590.641 409.749 592.94 417.325ZM587.878 322.137C587.259 327.213 586.432 332.264 585.477 337.29C584.444 342.518 583.23 347.872 581.965 352.923C581.784 353.656 581.603 354.363 581.422 355.095C581.397 355.196 581.371 355.272 581.345 355.348C581.345 355.398 581.319 355.449 581.293 355.499C581.293 355.499 581.293 355.499 581.293 355.525C581.293 355.525 581.293 355.525 581.293 355.55C581.216 355.727 581.087 356.131 580.958 356.838C580.958 356.838 580.958 356.863 580.958 356.889C580.906 357.065 580.854 357.267 580.803 357.444C580.389 358.909 579.976 360.399 579.589 361.889C578.685 361.258 577.755 360.652 576.826 360.071C576.826 360.071 576.826 360.045 576.826 360.02C576.826 360.02 576.826 360.045 576.8 360.071C574.889 358.858 572.952 357.747 571.015 356.712C564.043 352.999 555.754 350.625 550.356 344.639C546.225 340.043 544.985 334.209 545.192 328.349C548.445 321.404 552.965 315.065 559.756 310.898C568.459 305.544 578.917 304.028 589.04 303.7C589.04 309.862 588.653 316.05 587.904 322.137H587.878ZM720.303 222.806C694.995 218.816 668.242 211.062 649.623 192.903C644.897 188.307 640.869 182.776 639.293 176.335C638.338 172.471 637.925 168.43 637.951 164.415C646.989 148.125 662.716 134.714 682.187 133.704C704.318 132.567 720.561 149.766 729.264 167.9C732.233 174.088 734.764 180.578 736.029 187.322C736.727 191.059 736.933 194.747 736.752 198.434C732.672 206.516 727.353 214.042 721.697 221.114C721.258 221.669 720.793 222.25 720.329 222.806H720.303ZM797.877 231.923C797.722 232.529 797.542 233.135 797.387 233.742C794.262 231.999 789.614 231.595 786.799 231.09C779.491 229.802 772.131 228.842 764.771 227.983C753.331 226.67 741.84 225.685 730.4 224.22C732.879 218.563 734.557 212.678 736.21 206.743C739.128 196.338 742.511 185.832 744.164 175.123C744.887 170.501 744.913 165.981 744.396 161.536C758.367 169.163 772.544 177.649 782.874 189.847C792.713 201.44 799.478 216.694 797.851 231.923H797.877Z" fill="#C7B08A" fill-opacity="0.2"/>
<path d="M536.257 274.681C536.076 276.121 535.559 277.586 535.198 278.975C534.294 282.435 533.364 285.869 532.409 289.304C531.479 292.739 530.524 296.199 529.542 299.634C529.31 300.467 528.613 301.679 528.2 302.791C528.096 303.195 527.967 303.599 527.864 303.952C527.709 304.458 527.606 304.862 527.58 304.988C526.676 308.448 525.746 311.883 524.791 315.318C524.481 316.429 520.452 329.814 520.633 329.89C517.018 328.248 513.377 326.708 509.684 325.268C479.341 313.449 446.571 308.398 414.007 308.145C379.687 307.867 345.522 312.868 312.08 320.141C295.217 323.829 278.509 328.4 261.414 331.027C244.215 333.653 226.836 333.502 209.482 333.173C178.003 332.567 144.587 331.81 116.956 315.116C104.922 307.867 94.6441 297.714 88.6788 285.086C85.6058 278.596 83.669 271.549 83.3075 264.377C83.1267 260.765 83.3333 257.128 84.0047 253.542C85.58 244.879 88.214 236.292 90.7189 227.807C91.0805 226.417 91.3903 225.205 91.6744 224.22C91.287 227.478 91.1837 231.57 91.287 234.449C92.3458 263.089 115.923 284.203 141.669 293.926C156.26 299.432 171.857 301.781 187.403 302.867C204.137 304.028 221.052 304.281 237.811 304.129C254.829 303.952 271.408 301.882 288.013 298.27C304.359 294.709 320.551 290.592 337 287.461C369.642 281.222 403.006 277.611 436.293 279.353C468.004 281.02 499.587 287.562 528.509 300.644C528.613 299.053 528.613 297.462 528.561 295.845C528.07 284.809 523.68 273.999 516.76 265.337C509.374 256.093 498.915 249.779 487.734 245.814C461.471 236.52 433.142 240.359 406.234 244.425C377.053 248.819 347.743 252.355 318.304 254.628C303.713 255.765 289.097 256.598 274.481 257.179C259.916 257.76 245.197 258.467 230.684 256.699C206.306 253.694 183.504 242.101 167.028 224.296C166.692 223.942 167.932 220.609 168.087 220.003C168.681 217.729 169.275 215.482 169.895 213.234C172.322 203.308 175.059 193.408 178.107 183.685C179.165 180.326 180.457 177.017 182.006 173.81C184.976 167.622 188.849 161.864 193.291 156.611C209.508 137.467 232.776 124.687 256.146 115.722C266.424 111.782 278.122 108.069 289.252 110.241C294.856 111.327 299.866 114.181 303.507 118.5C305.779 121.202 307.69 124.435 308.258 127.92C308.594 129.966 308.258 131.885 307.794 133.881C305.831 142.038 303.455 150.145 301.183 158.227C301.183 158.227 299.995 162.495 299.892 162.495C299.84 162.495 300.046 161.687 300.279 160.778C301.131 154.035 296.431 147.392 291.06 143.553C286.618 140.371 281.195 138.982 275.746 138.856C265.443 138.578 255.346 142.063 245.92 145.776C235.358 149.943 225.08 154.893 215.422 160.778C200.238 170.047 186.138 182.068 177.125 197.247C178.468 198.636 179.863 199.975 181.283 201.263C190.14 209.319 200.496 215.835 211.678 220.407C223.686 225.331 236.391 227.706 249.38 228.312C263.996 228.994 278.742 228.16 293.358 227.428C307.974 226.721 322.565 225.736 337.155 224.473C351.875 223.185 366.543 221.644 381.185 219.8C395.827 217.957 410.391 215.633 425.008 213.588C451.348 209.9 479.703 208.107 504.261 220.129C514.771 225.281 523.603 232.807 529.413 242.859C534.991 252.456 537.651 263.644 536.257 274.631V274.681Z" fill="#C7B08A" fill-opacity="0.2"/>
<path d="M462.22 42.2781C466.274 37.631 470.587 32.6051 473.247 27.0489C477.301 18.6387 478.334 8.99104 480.322 -0.0252533C479.832 2.19725 477.043 5.05115 475.674 6.89481C473.892 9.31936 471.981 11.6681 469.993 13.9159C466.119 18.3357 461.936 22.3261 457.494 26.1902C440.709 40.8132 420.928 52.1783 407.215 70.0593C406.724 70.6907 396.886 65.9427 395.775 65.4123C391.927 63.5686 388.235 61.4219 384.826 58.8963C378.241 54.022 370.132 46.6473 371.682 37.7068C371.449 39.0706 370.778 40.687 370.39 41.9497C369.409 45.3845 368.454 48.8193 367.524 52.2793C366.207 57.1032 364.528 61.9775 363.676 66.9276C362.024 76.4238 371.01 84.2783 378.163 89.1527C382.037 91.7793 386.169 93.9765 390.481 95.8707C389.913 96.9819 389.371 98.0679 388.829 99.2044C385.239 106.933 382.967 115.141 380.901 123.349C378.318 133.527 375.426 143.831 375.865 154.439C376.201 162.47 378.706 170.501 383.793 176.891C394.897 190.756 414.911 197.247 432.213 192.247C441.716 189.494 449.695 183.508 455.506 175.78C461.962 167.218 465.241 156.964 467.798 146.761C471.981 130.067 478.231 108.625 466.145 93.5724C461.626 87.9404 454.653 84.8087 447.965 82.3336C444.505 81.0456 440.993 79.8333 437.455 78.7726C435.26 78.1159 433.039 77.4845 430.818 76.8784C429.914 76.6258 424.801 74.6054 424.13 75.0852C437.713 65.3365 451.193 54.8554 462.194 42.2528L462.22 42.2781ZM434.872 109.787C443.756 112.792 454.395 116.479 459.612 124.687C463.253 130.395 464.957 137.265 465.241 144.16C457.907 155.146 446.106 163.505 432.807 165.475C422.58 166.991 413.18 162.243 404.529 157.52C396.756 153.277 390.249 147.973 386.789 139.765C384.594 134.537 383.586 128.804 383.509 123.071C386.53 117.49 390.094 112.161 393.658 106.958C395.44 104.382 397.247 101.831 399.158 99.3307C400.888 99.9369 402.618 100.492 404.375 101.023C414.472 104.129 424.827 106.428 434.847 109.812L434.872 109.787Z" fill="#C7B08A" fill-opacity="0.2"/>
<path d="M521.511 498.725C519.239 495.062 515.623 492.335 511.621 490.668C506.508 488.547 500.904 487.991 495.403 487.738C492.718 487.612 489.929 487.486 487.45 488.622C484.996 489.734 483.163 491.804 481.665 493.951C481.355 494.406 481.149 495.669 481.02 496.073C480.529 497.79 480.064 499.508 479.573 501.225C478.437 505.367 477.508 509.559 476.733 513.777C475.984 517.818 475.028 522.036 475.312 526.178C475.597 530.648 477.301 534.967 480.684 538.073C483.989 541.129 488.405 542.846 492.769 543.882C497.934 545.119 502.453 544.917 507.024 542.089C511.027 539.639 514.306 536.431 516.501 532.34C517.56 530.37 518.309 528.299 518.955 526.152C519.084 525.723 519.213 525.294 519.316 524.889C519.265 525.698 519.807 523.778 520.943 519.182C521.64 516.656 522.312 514.131 522.932 511.605C524.042 507.109 524.042 502.791 521.537 498.75L521.511 498.725ZM519.368 519.586C517.044 523.197 513.635 526.102 509.813 528.147C505.5 530.471 501.11 530.319 496.462 529.158C492.382 528.147 488.328 526.556 485.126 523.829C481.639 520.823 479.78 516.631 479.341 512.161C479.16 510.165 479.238 508.145 479.522 506.175C481.717 503.877 484.402 502.387 487.914 502.26C492.434 502.084 497.237 502.563 501.679 503.498C509.529 505.14 517.844 509.938 519.445 518.272C519.497 518.576 519.549 518.879 519.574 519.207C519.497 519.333 519.42 519.459 519.342 519.586H519.368Z" fill="#C7B08A" fill-opacity="0.2"/>
<path d="M542.248 618.512C544.391 616.669 546.689 615.76 549.143 615.76C550.899 615.76 552.371 616.088 553.533 616.745C554.695 617.401 555.728 618.26 556.606 619.321C557.484 620.381 558.181 621.543 558.723 622.806C559.266 624.069 559.73 625.331 560.118 626.569C560.892 624.65 561.28 622.705 561.28 620.785C561.28 619.043 561.022 617.351 560.479 615.709C559.937 614.093 559.162 612.628 558.129 611.365C557.096 610.102 555.883 609.067 554.462 608.284C553.042 607.501 551.415 607.097 549.556 607.097C546.819 607.097 544.598 607.855 542.893 609.395C541.189 610.936 539.846 612.83 538.865 615.052C537.883 617.3 537.238 619.674 536.876 622.225C536.541 624.776 536.36 627.049 536.36 629.069C536.36 633.464 537.29 637.353 539.149 640.788C541.008 644.223 543.022 647.556 545.243 650.789C547.438 654.047 549.478 657.28 551.312 660.538C553.171 663.796 554.101 667.382 554.101 671.322C554.101 673.09 553.92 674.732 553.584 676.247C553.249 677.788 552.784 679.025 552.19 680.01C549.065 668.089 541.628 660.134 529.904 656.194C529.517 657.432 529.129 658.77 528.742 660.21C528.355 661.649 528.148 663.038 528.148 664.352C528.148 665.589 528.355 666.599 528.819 667.382C529.258 668.165 529.852 668.771 530.575 669.15C531.298 669.554 532.151 669.807 533.132 669.933C534.113 670.059 535.146 670.135 536.205 670.135H539.149C541.008 671.272 542.532 672.61 543.771 674.151C544.985 675.691 546.147 677.459 547.206 679.48C547.697 680.439 548.084 681.45 548.368 682.51C548.652 683.571 548.962 684.607 549.246 685.667C549.53 686.728 549.917 687.738 550.356 688.698C550.795 689.658 551.415 690.542 552.19 691.325C553.559 688.092 554.669 684.682 555.573 681.121C556.451 677.56 556.89 673.873 556.89 670.009C556.89 665.084 556.063 660.765 554.411 657.053C552.758 653.315 550.899 649.829 548.833 646.597C546.793 643.364 544.804 640.182 542.893 637.05C540.982 633.944 539.743 630.585 539.149 626.973C539.046 626.721 538.994 626.316 538.994 625.786C538.994 622.806 540.079 620.381 542.222 618.538L542.248 618.512Z" fill="#C7B08A" fill-opacity="0.2"/>
<path d="M116.982 240.333C117.705 240.737 118.557 240.99 119.538 241.116C120.52 241.243 121.527 241.318 122.611 241.318H125.529C127.389 242.455 128.912 243.793 130.126 245.334C131.34 246.875 132.476 248.642 133.561 250.663C134.051 251.623 134.439 252.633 134.723 253.694C135.007 254.754 135.317 255.79 135.601 256.851C135.885 257.911 136.246 258.896 136.685 259.881C137.124 260.841 137.744 261.725 138.519 262.508C139.887 259.275 140.998 255.891 141.876 252.33C142.754 248.794 143.193 245.081 143.193 241.243C143.193 236.343 142.366 232.024 140.714 228.312C139.061 224.599 137.202 221.114 135.162 217.881C133.122 214.648 131.133 211.466 129.248 208.36C127.337 205.253 126.097 201.894 125.529 198.308C125.426 198.055 125.374 197.651 125.374 197.121C125.374 194.141 126.433 191.741 128.602 189.898C130.746 188.054 133.044 187.145 135.472 187.145C137.228 187.145 138.699 187.473 139.862 188.13C141.024 188.786 142.057 189.645 142.935 190.681C143.813 191.741 144.51 192.903 145.052 194.166C145.594 195.429 146.059 196.691 146.447 197.904C147.221 195.984 147.609 194.065 147.609 192.12C147.609 190.378 147.35 188.685 146.808 187.069C146.266 185.453 145.491 184.013 144.458 182.725C143.425 181.462 142.212 180.427 140.791 179.644C139.371 178.861 137.744 178.457 135.885 178.457C133.147 178.457 130.927 179.215 129.222 180.755C127.518 182.296 126.175 184.165 125.194 186.412C124.212 188.635 123.567 191.034 123.231 193.56C122.895 196.111 122.715 198.384 122.715 200.379C122.715 204.748 123.644 208.637 125.504 212.072C127.363 215.482 129.377 218.815 131.572 222.048C133.767 225.281 135.781 228.539 137.641 231.772C139.5 235.004 140.43 238.591 140.43 242.531C140.43 244.273 140.249 245.915 139.913 247.455C139.578 248.996 139.113 250.234 138.519 251.193C135.394 239.298 127.983 231.368 116.31 227.428C115.923 228.665 115.536 229.979 115.148 231.443C114.761 232.883 114.554 234.272 114.554 235.585C114.554 236.823 114.761 237.808 115.2 238.616C115.639 239.399 116.233 240.005 116.956 240.384L116.982 240.333Z" fill="#C7B08A" fill-opacity="0.2"/>
<path d="M461.807 402.702C462.84 399.141 463.821 395.53 464.725 391.943C464.828 391.464 464.931 390.984 465.035 390.529C465.448 395.302 467.488 400 471 403.334C473.247 405.455 476.345 407.046 479.522 406.364C482.827 405.657 485.177 402.955 486.468 400.05C486.83 399.268 487.114 398.434 487.372 397.601C488.689 393.332 489.851 389.014 490.936 384.67C491.375 382.952 491.736 381.21 491.891 379.417C492.201 376.26 492.02 373.077 491.375 369.996C490.729 366.89 489.593 363.859 488.044 361.056C486.468 358.227 484.402 355.777 482.156 353.454C479.883 351.13 477.482 348.832 475.751 346.079C473.892 343.124 473.014 339.689 473.169 336.229C473.195 335.396 473.298 334.588 473.453 333.754C473.453 333.678 473.479 333.577 473.505 333.502C473.686 332.668 473.169 334.512 473.272 334.133C472.911 335.396 472.549 336.659 472.188 337.947C471.723 339.588 471.284 341.23 470.845 342.872C470.587 343.856 470.303 344.816 470.07 345.801C469.27 349.539 469.58 353.454 471.207 356.939C472.73 360.197 475.287 362.798 477.792 365.324C480.296 367.875 482.646 370.476 484.402 373.557C486.107 376.588 487.321 379.871 487.966 383.281C488.379 385.427 488.56 387.599 488.508 389.771C487.785 390.782 486.907 391.666 485.849 392.373C483.679 393.812 481.045 394.115 478.592 393.206C476.165 392.297 474.176 390.504 472.653 388.509C471.052 386.412 469.89 384.013 469.192 381.488C468.392 378.634 468.211 375.628 468.702 372.699C468.624 372.875 468.572 373.052 468.521 373.229C468.392 373.658 468.263 374.113 468.133 374.542C467.694 376.032 467.281 377.548 466.868 379.038C466.455 380.553 466.042 382.043 465.654 383.558C465.499 384.19 465.293 384.796 465.19 385.427C465.035 386.311 464.957 387.221 464.957 388.155C464.57 389.519 464.182 390.883 463.821 392.272C463.459 393.61 463.098 394.949 462.736 396.287C462.117 397.121 461.393 397.878 460.515 398.485C458.863 399.646 456.719 400.278 454.705 399.747C452.562 399.192 450.986 397.449 450.005 395.58C448.946 393.56 448.456 391.312 448.301 389.064C447.939 384.316 448.895 379.543 448.507 374.795C448.404 373.658 448.249 372.496 447.965 371.385C447.681 370.299 447.242 369.188 446.416 368.405C444.866 366.94 442.387 366.991 440.554 367.849C438.152 368.961 436.319 371.208 434.769 373.254C433.091 375.477 431.722 377.876 430.637 380.427C430.405 381.008 430.25 381.69 430.069 382.27C429.63 383.761 429.217 385.276 428.804 386.766C428.391 388.281 427.978 389.771 427.59 391.287C427.513 391.615 427.409 391.943 427.332 392.297C427.254 392.575 427.177 392.878 427.125 393.181C428.21 390.63 429.579 388.231 431.257 386.008C432.807 383.963 434.64 381.715 437.042 380.604C439.237 379.593 442.103 379.77 443.523 381.892C444.246 382.952 444.531 384.24 444.763 385.478C444.995 386.791 445.099 388.105 445.124 389.443C445.202 394.671 444.04 400.076 445.357 405.228C445.951 407.602 447.139 410.026 449.179 411.491C451.141 412.906 453.621 412.956 455.764 411.946C458.011 410.885 459.612 408.94 460.541 406.718C460.774 406.137 460.98 405.556 461.161 404.975C460.929 406.011 461.161 405.228 461.832 402.702H461.807Z" fill="#C7B08A" fill-opacity="0.2"/>
<path d="M624.703 460.412C625.039 458.77 625.219 457.962 624.832 458.315C624.755 458.72 624.29 459.477 623.799 460.79C623.412 461.7 622.999 463.19 622.56 465.236C622.146 467.281 621.837 469.63 621.63 472.156C621.707 474.732 621.501 477.232 621.785 479.732C621.94 482.46 622.327 484.531 623.154 486.425C624.032 489.026 625.4 490.87 627.208 491.956C629.016 493.042 630.952 493.168 632.889 492.158C634.903 491.299 636.272 489.607 636.943 486.905C637.615 484.203 637.692 481.374 636.866 478.924C636.453 477.99 636.22 478.091 636.065 478.899C635.73 479.96 635.497 481.197 634.774 482.611C634.284 483.925 633.457 485.036 632.398 485.667C630.901 486.501 629.506 486.349 628.138 485.061C626.614 484.026 625.555 482.258 624.806 479.96C624.238 476.297 623.748 472.762 623.851 469.377C624.161 465.892 624.471 462.962 624.677 460.462L624.703 460.412Z" fill="#C7B08A" fill-opacity="0.2"/>
<path d="M392.057 337.214C389.294 329.41 380.384 327.036 372.74 327.314C364.606 327.592 356.807 330.673 350.119 335.118C342.139 340.396 335.838 347.695 330.312 355.323C327.523 359.187 324.915 363.152 322.332 367.142C321.067 369.087 319.853 371.057 318.743 373.077C309.705 372.219 300.047 372.37 291.938 376.866C287.987 379.038 284.552 382.27 282.461 386.236C281.634 387.827 281.066 389.494 280.55 391.211C280.55 391.211 278.045 400.152 277.115 404.849C277.115 404.799 277.141 404.748 277.167 404.723C277.244 404.521 277.347 404.344 277.425 404.142C277.761 403.46 278.148 402.778 278.561 402.147C279.62 400.505 280.911 399.015 282.357 397.702C285.301 394.999 288.916 393.105 292.738 391.918C299.22 389.872 306.038 389.822 312.778 390.403C312.726 390.554 312.7 390.731 312.649 390.883C312.184 392.625 311.719 394.343 311.254 396.085C311.202 396.237 310.815 397.803 311.073 396.969C311.771 394.747 312.7 392.6 313.785 390.479C315.851 390.681 317.917 390.908 319.957 391.186C337.259 393.383 355.8 394.898 371.475 385.781C375.065 383.685 378.215 381.083 381.236 378.28C383.845 375.855 386.272 373.204 387.512 369.845C388.958 365.93 389.862 361.788 390.946 357.772C391.773 354.716 392.857 351.585 393.038 348.403C393.245 344.715 393.167 340.775 391.928 337.265L392.057 337.214ZM385.497 361.409C382.218 364.364 378.783 367.067 374.858 369.163C366.749 373.481 357.479 375.224 348.311 375.477C340.383 375.704 332.636 374.643 324.837 373.709C328.995 367.849 333.54 362.243 338.937 357.444C344.644 352.393 351.384 348.276 358.796 346.155C365.794 344.16 374.264 343.68 380.875 347.241C384.49 349.185 386.84 352.342 387.796 356.232C388.002 357.015 388.157 357.848 388.286 358.707C387.408 359.641 386.479 360.525 385.523 361.384L385.497 361.409Z" fill="#C7B08A" fill-opacity="0.2"/>
<path d="M614.643 222.74L606.415 242.369L626.486 250.416L634.714 230.787L614.643 222.74Z" fill="#C7B08A" fill-opacity="0.2"/>
<path d="M474.845 176.857L467.518 194.337L485.391 201.502L492.718 184.022L474.845 176.857Z" fill="#C7B08A" fill-opacity="0.2"/>
<path d="M10.0653 507.387L0.00598145 531.386L24.5453 541.224L34.6045 517.225L10.0653 507.387Z" fill="#C7B08A" fill-opacity="0.2"/>
<path d="M184.211 591.495L174.064 615.705L198.818 625.629L208.966 601.419L184.211 591.495Z" fill="#C7B08A" fill-opacity="0.2"/>
<path d="M699.425 298.399L688.366 324.782L715.343 335.597L726.401 309.214L699.425 298.399Z" fill="#C7B08A" fill-opacity="0.2"/>
<path d="M286.304 907.484L276.401 931.109L300.558 940.794L310.461 917.168L286.304 907.484Z" fill="#C7B08A" fill-opacity="0.2"/>
<path d="M411.266 415.408L402.04 437.421L424.548 446.445L433.775 424.432L411.266 415.408Z" fill="#C7B08A" fill-opacity="0.2"/>
<path d="M422.854 538.52L406.066 578.573L447.02 594.992L463.809 554.939L422.854 538.52Z" fill="#C7B08A" fill-opacity="0.2"/>
<path d="M171.855 732.16L159.778 760.973L189.24 772.785L201.317 743.971L171.855 732.16Z" fill="#C7B08A" fill-opacity="0.2"/>
<path d="M562.795 786.186L552.461 810.839L577.669 820.946L588.003 796.292L562.795 786.186Z" fill="#C7B08A" fill-opacity="0.2"/>
<path d="M100.222 655.916L111.352 629.372L85.1927 618.891L95.3156 594.772L68.1748 583.887L57.0447 610.431L83.1784 620.912L73.0813 645.031L100.222 655.916Z" fill="#C7B08A" fill-opacity="0.2"/>
<path d="M316.961 192.095L298.471 174.012L279.956 192.095L261.44 174.012L240.884 194.115L261.44 214.219L279.956 196.136L298.471 214.219L316.961 196.136L335.477 214.219L356.032 194.115L335.477 174.012L316.961 192.095Z" fill="#C7B08A" fill-opacity="0.2"/>
<path d="M701.606 375.679C695.718 364.213 685.931 356.737 674.93 350.196C664.084 343.73 652.67 337.543 645.465 326.935C642.108 321.985 640.12 316.378 640.171 310.418C640.171 311.479 639.113 313.878 638.88 314.661C637.899 318.096 636.943 321.53 636.014 324.991C635.084 328.425 634.129 331.885 633.225 335.32C632.863 336.659 632.166 338.25 632.166 339.614C632.114 346.534 634.826 352.772 638.906 358.126C637.641 360.929 636.427 363.758 635.394 366.662C633.974 370.653 632.837 374.744 631.701 378.81C629.403 387.019 627.027 395.201 625.065 403.485C623.902 408.36 623.102 413.386 623.308 418.386C624.135 438.565 645.285 453.82 665.195 450.663C676.841 448.819 682.522 439.121 686.706 429.347C687.274 428.034 687.61 426.443 687.971 425.104C688.953 421.669 689.908 418.235 690.838 414.8C691.742 411.491 692.645 408.183 693.523 404.849C700.393 418.184 701.761 434.221 699.824 449.173C699.592 449.754 699.334 450.335 699.075 450.915C696.622 456.548 693.73 462.003 690.476 467.256C684.098 477.535 676.351 486.981 667.545 495.34C657.241 505.114 645.543 513.348 632.992 520.116C607.685 497.538 576.774 481.323 550.615 459.704C541.086 451.825 531.918 443.162 525.462 432.63C518.929 421.947 516.037 408.511 518.102 396.136C517.844 397.07 517.56 398.182 517.199 399.495C514.9 407.45 512.602 415.431 510.768 423.463C510.123 426.316 509.658 429.221 509.503 432.151C509.193 437.808 509.916 443.49 511.543 448.92C514.771 459.603 521.64 468.923 529.413 476.904C544.107 492.007 562.106 503.877 579.537 515.696C587.775 521.278 596.064 526.859 604.121 532.719C602.701 533.224 601.281 533.704 599.835 534.158C586.871 538.351 573.624 541.028 560.169 543.25C546.793 545.473 533.545 548.201 521.795 555.146C511.75 561.056 503.28 569.441 497.547 579.467C494.474 584.847 492.15 590.58 490.368 596.489C486.649 608.713 482.853 621.189 480.451 633.742C475.7 658.846 480.839 686.678 493.337 709.004C497.392 716.227 502.815 722.263 509.064 727.44C499.303 728.375 489.593 729.915 480.012 732.037C457.649 736.987 435.647 747.165 422.064 765.955C418.836 770.4 416.228 775.249 414.368 780.376C411.683 787.776 409.875 795.479 407.835 803.056C406.415 808.334 404.814 813.613 403.91 819.018C402.05 830.332 404.297 841.823 409.746 851.926C415.117 861.902 423.174 870.337 432.316 877.131C442.568 884.758 454.369 889.759 465.861 895.265C478.205 901.174 490.445 907.513 501.059 916.126C503.744 918.323 506.404 920.571 508.883 922.995C505.345 923.526 501.808 924.081 498.321 924.713C474.615 928.93 451.296 935.042 427.513 938.881C406.027 942.341 382.786 943.604 363.108 932.946C353.527 927.769 345.625 919.939 341.339 909.989C339.376 905.417 338.162 900.593 337.594 895.669C357.737 899.204 377.647 904.71 395.181 915.166C397.867 916.757 400.475 918.475 403.006 920.293C402.98 920.293 404.22 916.252 404.297 915.999C405.278 912.59 406.208 909.155 407.163 905.72C408.093 902.286 409.049 898.826 409.952 895.365C410.082 894.86 411.295 891.249 411.011 891.072C392.186 877.611 369.538 870.766 346.839 866.675C346.478 866.599 346.142 866.549 345.78 866.498C344.205 864.503 342.63 862.508 341.029 860.513L341.416 857.937C344.334 852.683 348.156 847.986 351.797 843.111C355.387 838.288 359.002 833.514 362.798 828.842C366.956 823.69 370.881 818.765 373.567 812.678C375.194 808.966 376.485 805.127 377.699 801.288C379.093 796.767 380.178 792.903 381.495 788.761C383.354 782.851 384.903 776.815 386.53 770.83C387.305 767.925 388.106 764.996 388.854 762.091C388.932 761.839 389.577 759.187 389.138 760.601C387.073 767.142 385.756 772.294 383.535 778.583C381.985 782.851 380.126 787.044 377.647 790.908C375.478 794.292 372.74 797.272 370.21 800.404C365.458 806.314 360.913 812.4 356.42 818.512C353.967 821.846 351.178 825.155 349.241 828.817C347.175 832.706 345.858 836.924 344.618 841.116C342.914 846.95 341.184 852.81 339.557 858.72C335.683 853.845 331.758 848.996 327.704 844.248C323.185 838.919 318.459 833.792 313.578 828.766C308.775 823.816 303.843 818.967 298.6 814.471C288.193 805.531 276.444 797.878 263.17 793.762C256.585 791.716 249.716 790.554 242.795 790.605C234.971 790.681 227.533 792.449 220.174 794.924C210.231 798.308 200.677 802.728 191.096 806.945C189.572 807.602 188.075 808.284 186.551 808.94C185.957 809.193 185.389 809.446 184.795 809.698C180.353 811.592 175.886 813.512 171.47 815.431C171.186 815.557 170.902 815.684 170.592 815.81C162.277 808.865 154.994 800.758 149.106 791.615C144.949 785.15 141.54 778.204 139.009 770.981C136.479 763.733 134.8 756.207 134.051 748.579C133.328 741.104 132.992 732.921 135.678 725.748C137.408 721.152 139.991 716.883 142.702 712.792C143.709 711.277 144.768 709.787 145.904 708.347C149.933 703.17 154.71 698.548 159.952 694.532C165.246 690.466 171.005 687.006 176.996 684.026C183.013 681.046 189.314 678.596 195.718 676.575C197.113 676.146 198.533 675.717 199.953 675.313C212.401 671.802 225.751 670.539 237.889 665.993C236.752 674.732 235.306 683.445 233.628 692.108C231.846 701.149 229.909 710.165 228.024 719.182C227.817 719.03 227.637 718.904 227.43 718.778C227.456 718.778 226.242 722.768 226.139 723.071C225.157 726.481 224.202 729.915 223.272 733.35C222.343 736.785 221.387 740.245 220.483 743.68C220.354 744.185 219.141 747.796 219.425 747.973C246.385 767.269 282.254 778.002 315.205 768.86C332.817 763.96 347.769 753.302 362.772 743.503C374.884 735.573 387.434 728.046 400.423 721.556C407.757 717.894 415.35 714.535 423.278 712.337C429.863 710.519 437.016 709.332 443.756 711.024C444.066 711.1 451.916 681.854 451.761 681.803C451.658 681.778 451.555 681.753 451.425 681.727C451.813 680.515 452.329 679.101 452.329 679.101C453.311 675.666 454.266 672.231 455.196 668.797C456.125 665.362 457.081 661.902 457.985 658.442C458.243 657.482 459.353 655.032 459.043 654.148C453.646 639.02 440.915 628.413 425.705 623.235C417.131 620.306 408.067 618.916 399.029 618.437C390.378 617.982 381.65 618.235 373.128 619.876C364.812 621.467 356.781 624.397 349.783 629.12C342.423 634.095 336.329 640.712 330.828 647.556C320.292 660.639 312.235 675.489 306.038 690.946C301.906 701.25 298.729 711.832 295.734 722.49C293.875 729.158 291.989 735.825 290.233 742.543C286.67 742.265 283.132 741.811 279.646 741.179C261.259 737.896 243.828 730.193 228.644 719.586C228.824 718.98 228.979 718.348 229.16 717.742C230.813 711.782 232.75 705.796 233.989 699.735C236.365 688.016 238.896 676.323 241.168 664.604C241.891 664.301 242.589 663.973 243.286 663.644C251.059 659.881 260.123 659.124 268.412 657.027C272.725 655.916 277.451 654.679 281.066 651.976C282.538 650.865 283.571 649.552 284.165 647.834C286.411 641.243 288.013 634.373 289.82 627.655C290.13 626.443 290.543 625.23 290.931 623.968C299.22 607.905 320.731 604.192 337.155 600.581C354.87 596.691 375.968 588.61 381.727 569.946C382.863 566.284 384.051 560.98 384.929 558.101C378.964 577.497 356.136 584.998 338.033 588.862C320.576 592.575 298.781 597.298 292.454 616.189C292.015 617.527 291.576 619.119 291.163 620.735C289.769 622.705 287.444 623.993 285.275 624.953C281.427 626.67 277.296 627.68 273.19 628.615C268.877 629.6 264.539 630.433 260.226 631.469C256.12 632.454 252.634 633.969 248.786 635.611C247.831 636.015 246.849 636.393 245.894 636.772C246.385 633.11 246.824 629.448 247.211 625.786C248.451 613.31 248.967 600.707 247.288 588.256C246.488 582.447 245.248 576.689 243.647 571.032C255.914 572.901 268.283 572.724 280.575 570.451C294.675 567.849 308.233 562.874 321.015 556.585C325.431 554.413 329.77 552.09 334.031 549.615C338.291 547.165 342.449 544.589 346.581 541.912C350.687 539.235 354.767 536.482 358.77 533.678C362.798 530.875 366.775 527.996 370.752 525.117C372.74 523.677 374.729 522.238 376.691 520.773C377.905 519.889 379.196 519.081 380.384 518.171C382.476 516.58 384.593 515.015 386.737 513.449C388.854 511.908 390.998 510.367 393.141 508.852C393.348 508.701 393.58 508.549 393.787 508.398C416.434 492.335 440.734 477.207 468.185 470.463C471.516 469.63 474.899 468.948 478.308 468.392C478.54 468.342 479.599 464.175 479.599 464.099C480.58 460.689 481.51 457.255 482.466 453.82C483.395 450.385 484.351 446.925 485.255 443.49C485.384 443.01 486.133 439.222 486.313 439.172C457.933 443.844 432.471 458.063 409.204 474.024C401.689 479.177 394.303 484.556 386.943 489.961C369.332 496.805 350.532 499.179 331.681 496.679C321.119 495.265 310.712 492.865 300.434 490.112C290.698 487.486 281.118 484.278 271.305 481.98C262.679 479.985 253.641 478.874 245.016 480.743C246.514 478.267 248.192 475.893 250 473.62C256.74 465.235 265.675 459.225 276.237 456.421C300.976 449.855 325.922 459.704 350.842 457.507C363.134 456.421 375.607 450.865 379.558 438.565C381.443 432.656 382.967 426.62 384.593 420.634C385.368 417.729 386.169 414.8 386.918 411.895C386.995 411.643 387.641 408.991 387.202 410.405C387.124 410.633 387.047 410.885 386.969 411.112C382.734 421.821 371.32 426.923 360.293 428.16C346.891 429.65 333.307 427.2 320.008 425.837C307.69 424.574 294.959 424.069 282.951 427.579C272.312 430.66 263.506 437.126 256.921 445.789C249.69 455.31 245.223 466.574 241.607 477.838C241.168 479.252 240.729 480.667 240.316 482.106C239.929 482.258 239.541 482.384 239.154 482.536C238.844 482.662 237.914 486.602 237.863 486.804C236.881 490.239 235.926 493.673 234.996 497.108C234.067 500.543 233.111 504.003 232.207 507.438C232.052 508.019 231.51 511.605 231.149 511.731C249.819 504.281 270.633 513.297 288.736 518.323C302.345 522.111 316.393 525.571 330.57 526.632C305.934 539.007 278.2 546.407 250.465 541.659C243.544 540.472 236.752 538.704 229.987 536.861C219.502 515.772 206.693 495.744 197.035 474.302C199.463 472.408 201.813 470.438 204.085 468.367C213.124 460.159 220.819 450.562 226.19 439.677C232.517 426.822 236.184 412.779 239.929 399.015L252.582 368.86L220.561 356.005L207.417 387.322L238.715 399.874C235.694 407.88 231.949 415.583 226.939 422.629C221.878 429.726 215.783 436.09 209.121 441.773C203.052 446.95 196.519 451.522 189.676 455.664C186.448 445.89 184.227 435.762 183.581 425.508C183.142 418.487 182.832 411.668 184.149 404.723C184.666 402.121 185.286 399.545 185.905 396.969C186.267 395.454 185.57 397.803 185.389 398.409C185.389 398.409 185.389 398.434 185.389 398.459V398.485C185.389 398.485 185.389 398.485 185.389 398.535C184.563 401.389 183.762 404.243 182.961 407.097C181.309 413.082 179.63 419.068 178.132 425.104C176.48 431.797 174.904 438.54 175.163 445.46C175.395 451.37 175.705 457.229 176.48 463.064C171.212 465.791 165.84 468.342 160.443 470.817C151.198 475.035 141.876 479.025 132.553 483.091C124.987 486.375 117.498 489.961 109.828 492.966C102.495 495.845 95.2381 498.826 88.1365 502.21C86.019 503.22 83.8756 504.256 81.7581 505.316C81.5256 505.114 81.2932 504.912 81.0608 504.685C66.6511 491.906 52.7579 478.192 42.5317 461.876C32.8478 446.445 26.7018 428.387 27.4765 410.254C36.9021 391.741 52.3189 376.613 64.4303 359.768C68.4846 354.11 72.2033 348.226 75.2505 341.988C76.6966 347.948 81.9905 352.974 86.6646 356.863C87.9558 357.949 89.2986 358.985 90.6414 360.02C89.9958 360.803 89.3761 361.611 88.7821 362.419C85.425 367.041 82.8168 372.092 80.9317 377.447C80.2603 379.341 79.6405 381.26 79.0466 383.18C78.0136 385.352 71.7901 407.981 72.3065 408.006C71.6093 410.683 70.9895 413.36 70.5764 416.088C69.6725 422.149 70.1115 428.362 73.0813 433.843C75.5862 438.49 79.5114 442.329 84.0047 445.157C94.3601 451.724 106.446 452.077 118.299 453.138C128.37 454.047 141.179 455.79 148.254 463.695C148.151 463.594 149.442 459.679 149.545 459.401C150.527 455.992 151.482 452.557 152.412 449.122C153.342 445.688 154.297 442.228 155.201 438.793C155.356 438.161 156.621 434.878 156.26 434.499C154.994 433.06 153.497 431.873 151.895 430.837C153.187 426.291 154.504 421.72 155.511 417.123C159.513 398.762 163.981 376.512 150.294 360.753C144.019 353.529 134.748 350.347 126.175 346.584C124.29 345.751 122.405 344.892 120.545 343.983C119.874 343.654 119.203 343.326 118.531 342.998C118.195 342.821 117.834 342.644 117.472 342.467C117.292 342.366 117.111 342.291 116.93 342.19C116.672 342.063 116.491 341.887 116.233 341.786C116.104 341.735 115.975 341.735 115.845 341.659C115.742 341.609 115.665 341.533 115.561 341.457C115.355 341.331 115.122 341.23 114.916 341.104C114.477 340.876 114.038 340.624 113.599 340.397C112.721 339.917 111.869 339.437 111.016 338.932C109.312 337.947 107.608 336.911 105.929 335.85C104.276 334.79 102.624 333.678 101.023 332.542C100.558 332.188 100.067 331.86 99.6023 331.506C95.4705 328.451 91.3645 325.142 88.0332 321.227C85.9415 318.778 84.0564 315.949 83.2558 312.868C83.2558 312.817 83.2817 312.792 83.3075 312.742C83.3075 312.767 83.2558 312.817 83.2558 312.843C82.8685 311.327 82.7135 309.761 82.9459 308.12C82.9459 308.094 82.9459 308.019 82.9459 307.993C83.2817 306.428 82.5328 309.029 82.4036 309.484C82.4036 309.484 82.4036 309.509 82.4036 309.534C81.5773 312.388 80.7767 315.267 79.9762 318.121C79.8471 318.626 79.6921 319.156 79.5372 319.662C69.1819 337.315 54.2299 351.964 42.7383 368.885C39.5878 373.532 36.6956 378.331 34.2939 383.382C32.0473 388.155 30.3687 393.13 28.871 398.182C28.3028 399.52 25.7979 408.915 24.0677 415.633C21.8211 423.74 19.6777 431.898 19.4194 440.359C19.2129 447.077 19.9617 453.795 21.4595 460.336C26.8309 483.622 41.3955 503.119 58.1809 519.965C57.6128 520.444 57.0447 520.899 56.5024 521.404C51.4409 525.824 48.1097 531.077 44.8817 536.886C40.3367 544.993 36.7989 553.504 34.1906 562.394C34.139 562.495 33.9066 563.253 33.5192 564.642C30.4462 575.073 27.2957 585.63 25.1265 596.287C24.2743 600.48 23.7062 604.723 23.448 608.991C22.9315 618.083 23.887 627.226 25.9012 636.116C30.0847 654.552 38.8131 671.701 49.4009 687.385C60.1952 703.397 73.0296 717.843 85.3217 732.719C91.3387 739.992 97.0974 747.569 101.513 755.903C105.8 764.036 108.202 772.85 108.331 782.043C108.408 786.665 107.918 791.261 107.065 795.808C106.833 796.919 106.601 798.03 106.316 799.141C105.929 800.707 106.704 798.131 106.859 797.651C107.711 794.797 108.486 791.918 109.286 789.039C110.939 783.053 112.669 777.068 114.115 771.032C117.576 756.585 117.059 741.786 110.293 728.299C103.605 714.939 93.4304 703.7 83.824 692.31C64.327 669.251 45.2174 644.753 36.2307 615.709C32.2797 602.904 30.472 589.519 31.7374 576.234C32.8995 573.658 34.139 571.133 35.456 568.632C37.7543 564.314 40.1301 559.768 43.229 555.954C47.619 550.575 53.5068 546.382 59.3688 542.644C64.0171 539.689 68.8203 536.987 73.7527 534.461C80.9833 540.851 88.2656 547.216 94.3601 554.641C103.218 565.425 108.279 578.457 113.521 591.16C119.073 604.571 124.471 618.083 128.138 632.125C131.701 645.763 133.096 659.654 131.598 673.696C131.211 677.232 130.668 680.743 130.023 684.228C129.403 687.284 127.828 693.37 129.145 688.546C128.731 690.112 128.318 691.678 127.905 693.244V693.219C127.905 693.219 126.975 696.426 127.595 694.81C128.396 692.663 128.912 690.314 129.532 688.117C130.591 684.379 131.624 680.616 132.631 676.878C136.014 664.326 139.319 651.825 140.042 638.818C140.61 628.791 139.732 618.765 137.563 608.941C137.434 608.309 137.279 607.703 137.124 607.072C137.331 606.541 137.512 605.986 137.667 605.43C140.326 598.535 144.639 592.095 148.745 585.983C153.626 578.735 158.894 571.486 165.272 565.425C167.235 563.556 169.456 561.561 172.09 560.677C178.907 558.404 186.603 558.606 193.627 559.566C203.259 560.854 212.607 563.531 221.955 566.082C229.728 581.715 236.158 597.853 238.87 615.204C240.084 622.983 240.419 630.812 240.213 638.666C229.754 641.748 218.727 643.086 208.269 646.016C195.073 649.703 182.187 655.007 171.031 662.912C167.803 665.21 164.704 667.711 161.838 670.438C158.945 673.166 156.26 676.095 153.832 679.227C151.405 682.359 149.236 685.667 147.402 689.153C145.233 693.244 143.58 697.588 141.747 701.856C140.223 705.392 138.725 708.953 137.563 712.615C134.774 721.505 132.424 730.572 130.023 739.563C128.912 743.781 127.802 747.998 127.027 752.292C124.858 764.314 125.065 776.739 127.621 788.685C132.424 811.188 145.749 831.443 163.723 846.117C173.484 854.072 184.537 860.083 196.235 864.857C209.431 870.236 223.092 874.833 236.727 878.949C250.465 883.116 264.461 885.945 278.664 887.94C292.945 889.961 307.277 891.35 321.583 893.244C325.096 893.724 328.633 894.229 332.171 894.785C331.706 897.79 331.216 900.77 330.648 903.75C328.762 913.55 328.375 923.5 331.112 933.199C333.824 942.745 339.479 951.08 347.407 957.217C364.838 970.678 388.002 971.991 409.229 969.491C446.028 965.147 481.794 953.226 518.645 950.095C518.102 952.039 517.56 954.009 517.018 955.954C516.088 959.389 515.133 962.849 514.229 966.309C513.919 967.471 513.712 969.289 513.299 970.425C513.299 970.476 513.273 970.501 513.248 970.552L513.196 970.653L504.958 990.302L529.129 1000L539.046 976.361L515.159 966.789C516.062 964.869 516.863 962.874 517.534 960.854C518.748 957.267 519.729 953.605 520.711 949.943C529.542 949.261 538.426 949.11 547.387 949.716C570.215 951.231 593.017 957.495 611.404 971.208C611.352 971.183 612.592 967.168 612.695 966.915C613.676 963.505 614.606 960.071 615.561 956.636C616.439 953.454 617.317 950.246 618.144 947.039C618.97 944.942 620.313 941.735 620.933 939.614C622.792 932.971 624.651 926.304 626.356 919.611C629.894 905.771 634.748 889.43 626.511 876.272C622.276 869.504 615.51 864.579 608.77 860.361C601.229 855.664 593.482 851.294 585.657 847.077C570.008 838.666 553.997 830.938 538.09 823.033C528.251 818.134 518.128 813.436 509.374 806.768C499.613 799.343 492.15 789.064 494.448 776.487C494.448 776.487 494.448 776.462 494.448 776.436C494.5 776.234 494.551 776.007 494.629 775.78C494.706 775.502 495.429 773.103 494.964 774.163C495.274 772.749 495.119 773.128 494.525 775.325C493.906 777.169 493.492 779.164 493.002 780.982C490.962 788.206 488.947 795.429 487.114 802.702C486.701 804.394 486.313 806.087 486.133 807.804C485.849 810.304 485.926 812.855 486.442 815.33C487.424 820.255 490.006 824.725 493.312 828.514C500.413 836.722 510.355 842.253 519.988 847.152C533.209 853.896 546.612 860.285 559.834 866.978C567.607 870.893 575.302 874.908 582.92 879.101C590.332 883.192 597.795 887.334 604.767 892.108C611.739 896.906 618.35 902.866 621.217 910.948C623.902 918.525 623.231 926.758 621.759 934.512C621.398 936.381 620.984 938.224 620.545 940.068C620.545 940.144 620.416 940.573 620.365 940.801C620.339 940.902 619.59 941.179 618.789 941.457C592.604 922.288 559.73 918.424 527.786 920.848C528.174 916.176 527.786 911.453 526.134 907.059C523.655 900.492 518.593 895.189 513.377 890.567C507.644 885.541 501.498 881.046 494.939 877.106C481.304 868.923 466.377 863.19 452.407 855.613C440.76 849.299 430.121 840.737 422.374 830.08C415.711 820.886 411.683 810.279 411.295 799.242C419.352 786.059 432.367 776.007 446.519 769.415C456.435 764.793 467.023 762.116 477.766 760.02C490.574 757.52 503.589 756.055 516.63 755.626C531.298 755.121 547.051 755.903 561.564 757.924C583.721 769.819 606.601 781.866 625.065 798.838C639.448 812.047 651.121 829.069 654.116 848.44C655.201 855.487 654.555 863.164 654.168 870.261C653.987 873.444 653.781 876.626 653.522 879.783C658.558 861.018 663.516 841.95 661.786 822.402C661.554 819.674 661.166 816.947 660.624 814.269C659.539 808.764 657.732 803.384 655.253 798.333C654.245 796.287 653.161 794.292 651.999 792.347C638.441 769.592 615.174 754.439 592.449 741.432C579.589 734.083 566.548 726.986 553.429 720.04C541.654 713.777 529.413 707.943 518.826 699.785C507.85 691.35 500.749 680.515 495.687 667.913C490.833 655.815 487.734 643.01 486.881 630.029C486.52 624.372 486.572 618.689 487.14 613.057C492.02 603.081 499.277 594.368 508.419 587.827C519.368 579.997 532.099 576.083 545.295 573.684C559.24 571.133 573.107 569.011 586.716 564.996C599.912 561.081 612.772 555.904 624.884 549.388C626.123 550.499 627.363 551.61 628.577 552.721C643.916 567.067 656.131 584.089 663.465 603.637C671.702 625.584 673.923 649.577 669.585 672.585C669.378 673.595 669.172 674.605 668.965 675.59C668.862 676.095 668.733 676.601 668.603 677.131C668.552 677.409 668.5 677.51 668.5 677.56C668.5 677.586 668.448 677.712 668.371 678.015C668.371 678.015 668.371 678.015 668.371 677.99C668.371 677.99 667.441 681.147 668.061 679.581C668.888 677.484 669.378 675.035 669.998 672.888C671.857 666.246 673.716 659.578 675.421 652.885C680.689 632.201 681.18 610.835 676.221 590.024C671.418 569.895 661.786 551.13 648.074 535.396C647.893 535.194 647.712 534.992 647.505 534.764C650.475 532.466 653.393 530.092 656.182 527.592C674.879 510.898 689.056 489.582 696.235 465.791C699.928 453.542 703.62 441.142 706.229 428.615C707.468 422.654 708.32 416.593 708.501 410.481C708.863 398.611 706.952 386.412 701.477 375.729L701.606 375.679ZM684.898 415.911C679.785 420.684 672.864 422.175 665.944 421.821C652.18 421.114 639.577 412.628 634 400.303C631.959 395.808 631.236 391.135 631.34 386.387C632.837 383.18 634.387 379.972 635.885 376.765C638.183 371.764 640.042 366.637 641.695 361.435C644.329 364.288 647.325 366.864 650.423 369.112C660.65 376.563 672.606 381.538 682.109 389.973C686.68 394.04 690.27 398.737 693.033 403.864C690.967 408.259 688.488 412.552 684.898 415.886V415.911ZM292.273 739.184C292.764 736.785 293.255 734.386 293.797 731.986C294.288 730.496 294.804 729.006 295.321 727.541C299.917 714.812 305.599 702.437 312.829 690.921C320.112 679.353 328.969 667.711 340.177 659.502C351.436 651.294 365.406 648.062 379.222 647.506C393.606 646.925 408.687 648.491 422.038 654.022C434.795 659.3 445.279 668.847 450.392 681.475C444.918 680.414 439.185 681.147 433.814 682.435C426.738 684.127 419.92 686.88 413.335 689.936C400.604 695.871 388.415 703.068 376.562 710.519C361.223 720.167 346.607 731.431 329.331 737.644C317.219 741.988 304.282 743.478 291.473 742.619C291.757 741.482 292.015 740.321 292.248 739.184H292.273ZM108.072 370.88C108.899 371.31 109.751 371.739 110.577 372.168C118.893 376.335 128.138 379.114 135.885 384.316C143.09 389.165 147.66 396.515 149.881 404.698C152.128 413.007 151.844 421.594 150.63 430.029C147.686 428.387 144.432 427.251 141.204 426.392C135.291 424.801 129.171 424.043 123.076 423.639C108.666 422.73 92.9656 420.356 83.5657 408.41C80.441 404.42 78.84 399.975 78.3751 395.302C85.2443 384.316 95.6512 375.957 108.072 370.88ZM183.323 530.623C179.656 531.405 177.125 532.795 174.362 535.244C167.777 541.154 162.432 548.529 157.473 555.777C153.006 562.318 148.358 569.239 145.543 576.664C143.064 583.205 141.566 590.201 139.732 596.919C139.293 598.56 138.854 600.202 138.415 601.818C137.77 604.117 137.253 605.986 137.124 606.617C137.124 606.667 137.124 606.693 137.098 606.743C132.553 587.347 124.626 568.683 116.723 550.398C112.85 541.432 108.434 532.719 102.159 525.117C101.487 524.309 100.79 523.5 100.093 522.692C114.942 516.631 129.61 510.064 144.277 503.599C157.009 497.967 169.765 492.032 181.67 484.809C185.363 495.972 190.347 506.756 195.718 517.237C197.991 521.657 200.367 526.076 202.794 530.471C196.338 529.511 189.727 529.259 183.297 530.623H183.323ZM271.15 856.169C258.212 853.744 245.636 850.132 233.189 845.965C221.077 841.924 208.889 837.858 197.294 832.555C188.307 828.438 179.888 823.26 172.296 817.149C175.292 815.86 178.262 814.572 181.231 813.284C183.168 812.426 185.105 811.567 187.042 810.708C187.971 810.279 188.927 809.875 189.856 809.446C189.985 809.395 190.14 809.319 190.27 809.269C190.993 808.991 191.742 808.738 192.465 808.486C192.8 808.36 193.162 808.259 193.498 808.132C193.704 808.057 193.937 808.006 194.169 807.93C198.456 806.642 202.82 805.733 207.287 805.329C226.784 803.99 245.378 812.451 260.407 823.968C268.102 829.877 275.101 836.595 281.815 843.541C286.954 848.87 291.912 854.35 296.715 860.007C288.168 858.947 279.62 857.734 271.124 856.143L271.15 856.169Z" fill="#C7B08A" fill-opacity="0.2"/>
<path d="M727.327 569.744L750.284 547.291L728.592 526.077L750.284 504.836L727.327 482.409L704.369 504.836L726.087 526.077L704.369 547.291L727.327 569.744Z" fill="#C7B08A" fill-opacity="0.2"/>
<path d="M707.52 793.585L684.847 815.76L706.306 836.722L684.847 857.684L707.52 879.884L730.219 857.684L708.759 836.722L730.219 815.76L707.52 793.585Z" fill="#C7B08A" fill-opacity="0.2"/>
<path d="M355.025 133.476C354.38 136.507 353.45 139.487 352.624 142.467C352.236 143.907 351.849 145.347 351.41 146.761V146.811C351.333 147.089 350.971 148.327 351.152 147.544C352.572 140.7 356.032 133.224 352.959 126.354C350.454 120.722 345.29 116.252 341.003 111.883C336.665 107.488 332.3 103.043 328.814 97.9669C325.328 92.8905 322.797 87.107 321.842 81.0456C320.602 73.2668 322.668 66.0942 324.708 58.6185C324.708 58.5933 325.25 56.7748 325.767 55.0069C325.715 55.3858 325.664 55.7899 325.612 56.2192C325.509 57.1537 325.431 58.1387 325.483 58.8963C325.56 60.6642 325.405 62.4321 325.56 64.2C325.87 67.4328 326.619 70.6402 327.755 73.6962C331.887 84.8087 340.771 92.8148 348.853 101.225C352.882 105.417 357.479 110.064 358.124 116.05C358.77 121.96 356.239 127.794 355.051 133.502L355.025 133.476Z" fill="#C7B08A" fill-opacity="0.2"/>
<path d="M967.101 673.494C966.3 667.18 962.659 661.472 958.501 656.724C953.879 651.471 948.301 647.809 942.181 644.374C937.093 641.52 931.386 636.04 931.335 629.877C930.508 632.251 930.018 634.777 929.346 637.151C928.055 641.798 926.531 646.47 925.602 651.193C925.059 654.047 925.834 656.851 927.435 659.25C930.973 664.604 937.739 666.776 942.904 670.236C948.378 673.898 953.13 678.672 956.668 684.152C959.379 688.37 960.877 692.764 961.135 697.411C956.487 706.604 949.747 714.863 940.631 720.091C933.788 724.031 925.989 725.799 918.629 728.526C911.683 731.102 905.149 734.689 900.32 740.346C895.13 746.458 892.263 753.934 890.068 761.485C888.958 765.248 887.925 769.036 886.892 772.825C886.659 769.466 886.143 766.107 885.342 762.748C880.978 744.942 869.564 728.703 855 717.313C847.95 711.782 838.085 707.109 829.408 711.933C826.025 713.802 823.288 716.631 821.609 720.066C821.041 721.227 820.602 722.44 820.189 723.677C820.163 723.627 819.905 724.46 819.466 726.152C819.182 727.188 818.898 728.223 818.614 729.259C816.548 736.558 814.172 743.907 812.545 751.357C812.287 752.292 812.209 752.696 812.287 752.57C812.158 753.176 812.055 753.757 811.925 754.363C811.125 758.53 811.125 762.925 810.944 767.168C810.763 771.183 810.712 775.224 811.073 779.24C811.77 786.816 814.198 794.494 820.576 799.318C827.859 804.874 838.137 805.531 846.581 802.273C855.051 799.015 861.43 791.792 864.787 783.66C865.975 780.831 866.775 777.876 867.602 774.946C867.963 773.683 868.325 772.395 868.686 771.133C873.36 778.962 876.717 787.498 878.267 796.414C879.532 803.738 879.3 811.188 878.318 818.538C875.529 824.801 872.017 830.761 867.731 836.191C861.946 843.516 854.767 849.627 846.865 854.679C830.441 865.16 811.435 870.842 792.635 875.691C771.305 881.172 749.948 886.501 728.773 892.486C717.798 895.593 706.59 898.346 695.899 902.235C687.842 905.165 680.431 909.509 673.252 914.105C665.479 919.106 657.99 924.788 651.973 931.759C649.055 935.143 646.473 938.856 644.562 942.897C643.425 945.296 642.573 947.771 641.824 950.322C639.965 956.585 638.183 962.874 636.505 969.213C636.169 970.4 635.756 972.395 635.42 973.936C641.773 960.121 655.614 949.185 668.294 941.407C676.015 936.659 683.865 932.643 692.594 929.84C703.362 926.405 714.337 923.475 725.235 920.419C746.204 914.535 767.379 909.458 788.426 903.902C806.941 899.002 825.638 892.991 841.494 882.132C857.091 871.474 867.86 856.446 873.773 838.793C877.544 827.554 880.462 815.962 883.354 804.47C884.568 799.621 885.575 794.696 886.246 789.746C886.918 784.695 887.228 779.669 886.995 774.668C888.829 770.198 891.153 765.905 894.329 762.192C898.383 757.444 903.703 754.085 909.462 751.635C915.556 749.034 922.038 747.468 928.158 745.018C933.736 742.796 938.772 739.664 943.136 735.598C951.555 727.718 956.9 717.313 960.128 706.453C960.283 705.948 960.412 705.468 960.567 704.963C960.929 704.331 962.736 697.866 964.079 692.739C964.957 689.481 965.784 686.248 966.481 682.965C967.152 679.833 967.488 676.626 967.101 673.444V673.494ZM840.383 774.82C833.669 773.961 827.42 770.552 823.675 764.945C820.267 759.818 819.156 753.605 818.846 747.594C818.769 746.028 818.743 744.463 818.743 742.897C821.893 740.371 825.845 738.856 830.105 739.083C839.144 739.588 846.865 745.927 853.089 751.812C857.556 756.03 861.636 760.727 865.174 765.778C858.847 772.219 850.119 776.058 840.357 774.82H840.383Z" fill="#C7B08A" fill-opacity="0.2"/>
</g>
<defs>
<clipPath id="clip0_69_226">
<rect width="1000" height="1000" fill="white"/>
</clipPath>
</defs>
</svg>
