<svg width="35" height="40" viewBox="0 0 35 40" fill="none" xmlns="http://www.w3.org/2000/svg">
<g clip-path="url(#clip0_83_808)">
<path d="M18.7863 39.2958C19.8204 39.2579 20.9315 39.3162 21.9548 39.4677C21.971 39.4769 21.9875 39.4863 22.0038 39.4955C20.596 39.8305 19.0931 40 17.4943 40C16.6641 40 15.8599 39.952 15.0813 39.8616C15.3992 39.7702 15.7213 39.6923 16.0462 39.625C16.9491 39.4377 17.867 39.3279 18.7863 39.2958ZM14.6118 32.1707C15.1005 32.3553 15.6189 32.4895 16.1681 32.5714C16.2931 33.7074 16.6295 34.8262 17.1445 35.8035C17.4303 36.3445 17.8127 36.7963 18.2531 37.1841C17.565 37.2542 16.88 37.3701 16.2045 37.529C14.8937 37.8374 13.6012 38.4173 12.6521 39.4129C11.2623 39.0521 9.96782 38.5249 8.76822 37.8304C9.36266 37.4426 9.97033 37.0742 10.5934 36.7433C11.1105 36.4689 11.6466 36.217 12.2055 36.0525C12.6696 35.9163 13.1741 35.8275 13.6491 35.9543C13.6761 35.9379 14.2239 33.7694 14.213 33.7656C14.2058 33.7638 14.1982 33.7619 14.1891 33.76C14.2164 33.6693 14.2529 33.5625 14.2529 33.5625C14.3221 33.3054 14.3903 33.0485 14.4557 32.7913C14.5081 32.5856 14.5599 32.3779 14.6118 32.1707ZM24.795 29.789C24.7768 29.8617 24.7563 29.9347 24.7381 30.0056C24.5633 30.6744 24.3602 31.3439 24.2528 32.029C24.1727 32.5378 24.1544 33.0814 24.1981 33.5937C24.3038 34.8349 25.1286 35.9433 26.1099 36.663C26.4258 36.8949 26.7676 37.0873 27.1171 37.2667C27.0021 37.3442 26.8879 37.423 26.7707 37.4977C26.1152 37.9157 25.4294 38.2806 24.7142 38.5937C24.5205 38.4704 24.3258 38.3501 24.132 38.2321C23.2254 37.6816 22.3064 37.1497 21.3816 36.6295C20.5514 36.1602 19.6877 35.7239 18.9413 35.1127C18.1674 34.4808 17.6666 33.6685 17.3097 32.7243C17.3024 32.7047 17.2954 32.6849 17.2881 32.6651C17.3721 32.6673 17.4568 32.6707 17.5421 32.6707C18.2734 32.6707 18.9592 32.5898 19.5998 32.4286C19.5995 32.4383 19.5986 32.448 19.5986 32.4576C19.5986 32.5503 19.6138 32.6266 19.6464 32.6853C19.6773 32.7435 19.7189 32.7886 19.7695 32.8169C19.8204 32.8472 19.8806 32.8666 19.9495 32.8761C20.0187 32.8856 20.0926 32.8918 20.1671 32.8918H20.3745C20.5054 32.9768 20.613 33.0767 20.7004 33.192C20.7859 33.3074 20.8672 33.4401 20.9419 33.5915C20.9764 33.6633 21.0038 33.7387 21.0239 33.8181C21.044 33.8975 21.0666 33.9752 21.0866 34.0547C21.1066 34.1342 21.1331 34.2105 21.164 34.2824C21.1949 34.3542 21.2394 34.4202 21.294 34.4787C21.3905 34.2366 21.4683 33.981 21.5321 33.7143C21.5939 33.4475 21.6255 33.1712 21.6255 32.8817C21.6255 32.5128 21.5665 32.1888 21.45 31.9107C21.4225 31.8443 21.3904 31.7807 21.3612 31.7166C21.7251 31.5051 22.0701 31.2594 22.3945 30.9777C22.923 30.512 23.3946 29.9809 23.813 29.3873L24.795 29.789ZM9.09863 31.1965C10.1127 31.1529 11.1766 31.2698 12.1178 31.6841C13.0172 32.0797 13.7557 32.7951 14.1162 33.741C13.7305 33.6618 13.3268 33.7161 12.9484 33.8125C12.4495 33.9393 11.968 34.1461 11.5037 34.375C10.6065 34.8195 9.74721 35.3583 8.91178 35.9163C8.41017 36.2515 7.91705 36.6101 7.41357 36.9475C6.34569 36.173 5.38593 35.2767 4.53336 34.2578C5.02444 33.4554 5.61396 32.6647 6.34602 32.0949C7.13971 31.48 8.12474 31.2381 9.09863 31.1965ZM28.9787 4.11719C29.7558 4.83192 30.4617 5.62655 31.0978 6.50112L30.895 7.01897L31.6822 7.35379C32.1021 8.01038 32.4865 8.7071 32.8353 9.44419C33.0323 9.8559 33.2144 10.2774 33.3844 10.7076C33.3326 10.9107 33.2793 11.1136 33.2295 11.317C33.1658 11.5742 33.1121 11.8337 33.0757 12.0982C33.0084 12.5848 32.9986 13.0786 33.0585 13.567C33.177 14.5095 33.5744 15.3867 34.1262 16.1473C34.351 16.4577 34.5969 16.7458 34.8587 17.0167C34.9523 17.9734 35 18.9622 35 19.9833C35 20.0672 34.9972 20.1509 34.9966 20.2344L33.6408 18.827L32.0229 20.5078L33.5541 22.0993L32.0229 23.6886L33.6408 25.3705L34.6959 24.2723C34.4875 25.6733 34.1708 26.9984 33.7479 28.2489C33.6269 28.1575 33.5091 28.0625 33.3992 27.9576C33.3082 27.8722 33.2241 27.7816 33.1441 27.6853C32.7199 27.1782 32.4432 26.5271 32.5653 25.8583C32.5471 25.9563 32.5015 26.0714 32.4742 26.1641C32.405 26.4111 32.338 26.6585 32.2724 26.9073C32.1797 27.2561 32.065 27.6049 32.0013 27.9609C31.8647 28.7079 32.2214 29.4206 32.7293 29.9531C32.7221 29.9677 32.715 29.9822 32.7077 29.9967C32.6058 30.2074 32.5164 30.4261 32.44 30.6496C32.4163 30.7203 32.3941 30.7897 32.3704 30.8605C32.3777 30.8169 32.3562 30.8835 32.309 31.0614C32.2216 31.3544 32.1418 31.6514 32.0651 31.9487C31.2031 33.4199 30.1748 34.704 28.9787 35.8014L28.0684 35.356C27.4987 35.0762 26.9306 34.7841 26.4391 34.3773C25.9967 34.0119 25.6063 33.5751 25.3078 33.0826C24.9857 32.5503 24.773 31.9453 24.7529 31.3203C24.7366 30.8152 24.7511 30.3059 24.8383 29.808L26.1474 30.3438L27.2104 27.7555L25.1106 26.8951C25.1744 26.7255 25.2371 26.5533 25.2952 26.3773C25.5383 25.659 25.7355 24.9101 25.8878 24.1306C26.0665 24.0391 26.2439 23.9447 26.4186 23.8449C26.506 23.9281 26.5939 24.0117 26.6796 24.0949C27.7609 25.1696 28.6223 26.4451 29.1394 27.9096C29.72 29.5537 29.8759 31.3512 29.57 33.0747C29.5554 33.1504 29.5413 33.2264 29.5267 33.3002C29.5195 33.3379 29.5107 33.3757 29.5016 33.4152C29.498 33.436 29.4937 33.4438 29.4937 33.4475C29.4937 33.4475 29.4899 33.4594 29.4846 33.4822V33.4799C29.4821 33.4886 29.4203 33.7135 29.4629 33.5993C29.5211 33.4423 29.5559 33.2579 29.5996 33.0971C29.7306 32.5998 29.8612 32.1005 29.9812 31.5993C30.3527 30.0497 30.3878 28.4486 30.0383 26.8895C29.6996 25.3816 29.0202 23.9757 28.0535 22.7969C28.0409 22.7818 28.0281 22.7669 28.0136 22.7499C28.2231 22.5778 28.4289 22.3993 28.6255 22.212C29.9434 20.9615 30.9426 19.3648 31.4488 17.5826C31.7091 16.6649 31.97 15.7353 32.1539 14.7969C32.2413 14.3505 32.3018 13.8963 32.3146 13.4386C32.3401 12.5494 32.2049 11.6351 31.819 10.8348L31.8281 10.8315C31.4131 9.97253 30.7226 9.41302 29.947 8.92299C29.1824 8.43862 28.3781 7.97435 27.8701 7.17969C27.6334 6.80885 27.4927 6.38849 27.4965 5.94197C27.4965 6.02137 27.4217 6.20125 27.4052 6.26005C27.3361 6.51737 27.2692 6.77538 27.2036 7.03459C27.1381 7.29178 27.0702 7.55085 27.0065 7.80803C26.981 7.90823 26.9325 8.02737 26.9325 8.12946C26.9288 8.6479 27.1199 9.11562 27.4076 9.51674C27.3183 9.72672 27.2331 9.93871 27.1603 10.1563C27.0602 10.4551 26.9795 10.7613 26.8994 11.0659C26.7374 11.6808 26.5695 12.2946 26.4312 12.9152C26.3493 13.2802 26.2935 13.6568 26.3081 14.0312C26.3666 15.543 27.8575 16.6851 29.2613 16.4487C30.0819 16.3104 30.4828 15.5847 30.7777 14.8527C30.8177 14.7544 30.8411 14.6349 30.8665 14.5346C30.9357 14.2773 31.0038 14.0195 31.0694 13.7623C31.1331 13.5145 31.1965 13.2664 31.2585 13.0167C31.7427 14.0157 31.8393 15.217 31.7028 16.337C31.6864 16.3805 31.6674 16.4242 31.6492 16.4677C31.4763 16.8895 31.2725 17.2984 31.0431 17.692C30.5935 18.4619 30.0471 19.1695 29.4265 19.7958C28.7001 20.5279 27.8753 21.1447 26.9906 21.6518C26.7494 21.4232 26.5002 21.2043 26.2466 20.9911C26.2608 20.6514 26.2705 20.3067 26.2705 19.9576C26.2705 19.6285 26.2625 19.3037 26.25 18.9833C26.263 19.0338 26.2777 19.0819 26.2967 19.1283C26.3586 19.3232 26.4553 19.461 26.5827 19.5424C26.7101 19.6238 26.8472 19.6337 26.9837 19.5581C27.1256 19.4937 27.2212 19.3664 27.2685 19.1641C27.3159 18.9616 27.3223 18.7494 27.264 18.5658C27.2349 18.4962 27.218 18.5042 27.207 18.5647C27.1834 18.6441 27.1668 18.7368 27.1159 18.8426C27.0812 18.941 27.023 19.0241 26.9484 19.0714C26.8429 19.1338 26.7453 19.1221 26.6488 19.0257C26.5413 18.9481 26.4657 18.8161 26.4129 18.644C26.3729 18.3698 26.3384 18.1049 26.3457 17.8515C26.3676 17.5904 26.3893 17.3704 26.4038 17.1831L26.4061 17.1797C26.4298 17.0568 26.4425 16.996 26.4152 17.0223C26.4097 17.0526 26.3768 17.1094 26.3423 17.2075C26.315 17.2757 26.2855 17.388 26.2545 17.5413C26.2271 17.6859 26.2064 17.8509 26.1919 18.0279C26.0613 16.4046 25.7644 14.8997 25.2952 13.5134C25.1384 13.0342 24.9608 12.5792 24.7632 12.1485C24.8296 11.7591 24.8265 11.3771 24.688 10.99C24.4294 10.2656 23.868 9.66477 23.2399 9.21206C23.6167 7.80419 24.0304 6.37969 24.2653 4.93304C25.0552 4.92935 25.8416 4.97753 26.626 4.85937C27.4214 4.74114 28.1954 4.49345 28.9217 4.14621C28.9408 4.13711 28.9597 4.12642 28.9787 4.11719ZM9.3265 25.1831C9.42889 25.5898 9.54105 25.9883 9.66944 26.3773C10.0072 27.3751 10.4334 28.2682 10.9466 29.0569C10.7964 29.0402 10.6459 29.0264 10.4954 29.0178C9.88555 28.9838 9.26989 29.0031 8.6691 29.1262C8.08316 29.2453 7.51712 29.4646 7.02393 29.8181C6.50509 30.1907 6.07526 30.6871 5.6875 31.1998C5.07809 32.0039 4.58641 32.8971 4.18815 33.8314C3.53568 32.9971 2.94959 32.0872 2.43245 31.0993C2.57159 30.6426 2.67878 30.1712 2.79589 29.7087C2.81771 29.6181 2.84724 29.5274 2.87452 29.433C3.45889 28.2298 4.97509 27.9513 6.13298 27.6808C7.38193 27.3894 8.86922 26.7833 9.27523 25.385C9.29332 25.3231 9.30833 25.2541 9.3265 25.1831ZM21.2312 32.1719C21.3624 32.4159 21.4284 32.6848 21.4284 32.9799C21.4284 33.1123 21.4156 33.2358 21.3919 33.3494C21.3683 33.4645 21.3357 33.5569 21.294 33.6306C21.1383 32.9998 20.8297 32.5183 20.371 32.1853C20.6099 32.095 20.8416 31.9928 21.066 31.8773C21.1228 31.9755 21.179 32.0731 21.2312 32.1719ZM8.7876 21.8047C8.87277 22.9295 9.03832 23.9989 9.2832 25.0134C8.67275 26.0898 7.30828 26.5501 6.19564 26.8024C4.96499 27.0806 3.42783 27.4344 2.9816 28.8494C2.95065 28.9496 2.9196 29.0697 2.89046 29.1909C2.79211 29.3382 2.62854 29.4349 2.47575 29.5067C2.25674 29.6105 2.02349 29.6758 1.78988 29.7355C1.23727 28.4329 0.80948 27.041 0.511557 25.5581C1.05584 25.5737 1.60107 25.5297 2.1442 25.423C3.13802 25.2281 4.09377 24.856 4.99479 24.385C5.30608 24.2224 5.61272 24.0481 5.91309 23.8627C6.21349 23.6792 6.50704 23.4863 6.79834 23.2857C7.08778 23.0851 7.37523 22.8785 7.65739 22.6686C7.94135 22.4585 8.22131 22.2424 8.50163 22.0267C8.59729 21.9531 8.69251 21.8789 8.7876 21.8047ZM0 20.8215C0.923655 20.8813 1.86459 21.2656 2.71956 21.5178C3.67905 21.8017 4.66973 22.0611 5.66928 22.1406C3.97483 23.045 2.07264 23.5919 0.165202 23.288C0.0779109 22.489 0.0215342 21.667 0 20.8215ZM34.9897 20.788C34.969 21.6275 34.913 22.444 34.8269 23.2377L33.7308 22.0993L34.9897 20.788ZM9.19092 15.2935C8.89435 16.6638 8.73648 18.1342 8.72152 19.7065C7.75515 19.9695 6.75194 20.0378 5.74674 19.8962C5.00229 19.7903 4.26887 19.6102 3.54444 19.404C2.85805 19.2072 2.18208 18.9679 1.49023 18.7958C1.00771 18.6771 0.507177 18.6018 0.0170898 18.6451C0.0246652 18.4617 0.0348378 18.2794 0.0455729 18.0982C0.513857 17.5075 1.12293 17.0825 1.83886 16.8806C3.58282 16.3889 5.34129 17.1265 7.09798 16.9621C7.96461 16.8807 8.844 16.4639 9.12256 15.5424C9.14729 15.46 9.16775 15.3765 9.19092 15.2935ZM19.3935 0C20.5082 0.0996094 21.5716 0.288613 22.5836 0.56808C23.0494 1.28355 23.4543 2.02009 23.6512 2.87054C23.5111 2.90192 23.3673 2.92035 23.2308 2.96651C22.8193 3.08293 22.4148 3.26643 22.0926 3.55469C21.7741 3.83737 21.5446 4.20135 21.368 4.58928C21.1587 5.05482 21.0237 5.5499 20.8872 6.04129C20.7371 6.58998 20.5897 7.14066 20.4508 7.69197C19.5775 7.34407 18.6081 7.16966 17.5421 7.16965C15.5601 7.16965 13.9113 7.74267 12.5952 8.88839C11.295 10.0341 10.3196 11.5758 9.66944 13.5134C9.63174 13.6275 9.59892 13.7437 9.56348 13.8594C9.58993 13.7544 9.61672 13.6493 9.64209 13.5447C9.64787 13.5242 9.69223 13.3277 9.66146 13.433C9.656 13.4501 9.65097 13.4696 9.64551 13.4866C9.34682 14.2886 8.54179 14.6707 7.76448 14.7634C6.81959 14.875 5.86176 14.6914 4.92415 14.5893C4.05575 14.4947 3.15824 14.4569 2.31169 14.7199C1.56162 14.9507 0.940487 15.4347 0.476237 16.0837C0.367898 16.2353 0.269769 16.3937 0.177735 16.5558C0.474964 13.9389 1.12443 11.5681 2.1294 9.44419C2.73812 8.17184 3.45262 7.02018 4.27019 5.98773C4.30195 5.98058 4.33411 5.97246 4.36589 5.96541C6.72343 5.4449 9.13216 5.08726 11.5516 5.10714C13.8474 5.12523 16.1583 5.48669 18.2975 6.33259C18.5577 6.43558 18.8141 6.54663 19.0688 6.66406C19.0561 6.65864 19.3398 5.70007 19.3616 5.62054C19.429 5.37481 19.495 5.12922 19.5587 4.88169C19.5606 4.87266 19.5672 4.84307 19.5781 4.80691C19.5854 4.78174 19.5947 4.7531 19.6021 4.72433C19.6311 4.6448 19.6803 4.55742 19.6966 4.49777C19.7658 4.25206 19.8339 4.00464 19.8994 3.75893C19.9667 3.51329 20.0317 3.26753 20.0954 3.02009C20.1209 2.92067 20.1578 2.81509 20.1706 2.71206V2.70871C20.2689 1.92249 20.0807 1.12208 19.6875 0.435267C19.5999 0.281301 19.4998 0.137514 19.3935 0ZM27.6046 9.76451C27.7903 9.97818 28.0015 10.171 28.2199 10.3393C28.9408 10.8974 29.783 11.271 30.4529 11.9029C30.7752 12.2074 31.0283 12.5591 31.2231 12.9431C31.0775 13.2722 30.9031 13.5941 30.6501 13.8438V13.8459C30.2896 14.2034 29.8014 14.3144 29.3137 14.288C28.3432 14.235 27.4545 13.5997 27.0612 12.6763C26.9174 12.3397 26.867 11.9896 26.8744 11.6339C26.98 11.3936 27.089 11.1532 27.1945 10.9129C27.3566 10.5383 27.4882 10.1543 27.6046 9.76451ZM33.6191 11.3304C33.8425 11.9542 34.038 12.5967 34.207 13.2578C33.8826 12.6482 33.6904 11.9974 33.6191 11.3304ZM8.64177 7.20871C8.06839 7.2296 7.51816 7.45947 7.04671 7.79241C6.48418 8.18785 6.04064 8.73554 5.65104 9.30691C5.45446 9.59634 5.27024 9.89309 5.08822 10.192C4.9991 10.3375 4.91351 10.4849 4.83528 10.6362C4.19806 10.5718 3.51683 10.584 2.94514 10.9208C2.6667 11.0835 2.42494 11.3258 2.27751 11.6227C2.21928 11.7419 2.17833 11.867 2.14193 11.9955C2.13669 12.0154 1.96496 12.6702 1.90039 13.0167C1.90043 13.0131 1.90209 13.0097 1.90381 13.0078C1.90923 12.9928 1.91659 12.9793 1.92204 12.9643C1.94564 12.9134 1.97275 12.8619 2.00179 12.8147C2.07643 12.6918 2.16757 12.5794 2.26953 12.481C2.47708 12.2786 2.73268 12.1369 3.00211 12.048C3.45898 11.8949 3.93982 11.8906 4.41488 11.9342C4.41124 11.9455 4.40941 11.9597 4.40577 11.971C4.37302 12.1014 4.33938 12.2301 4.30664 12.3605C4.30267 12.3734 4.27604 12.4883 4.2941 12.4263C4.34327 12.2599 4.40907 12.0986 4.48552 11.9398C4.63116 11.9549 4.77691 11.9725 4.92073 11.9933C6.14055 12.1579 7.44778 12.2712 8.55289 11.5881C8.80585 11.4312 9.02812 11.2367 9.24105 11.0268C9.42493 10.8451 9.59572 10.6456 9.6831 10.394C9.785 10.1008 9.84934 9.79069 9.92578 9.48995C9.98404 9.26105 10.06 9.02631 10.0728 8.78794C10.0873 8.51174 10.0827 8.21608 9.99528 7.95312L10.0044 7.94977C9.80959 7.36512 9.18067 7.1879 8.64177 7.20871ZM7.65852 8.61942C8.15192 8.46994 8.74989 8.43411 9.21598 8.70089C9.47074 8.84659 9.63627 9.0837 9.70361 9.375C9.71813 9.43354 9.7287 9.49607 9.73779 9.56026C9.67596 9.63017 9.61024 9.69691 9.54297 9.76117L9.54183 9.76227C9.31061 9.98365 9.06775 10.1867 8.79102 10.3437C8.21959 10.667 7.56624 10.7969 6.92025 10.8159C6.36133 10.8329 5.81463 10.7542 5.26482 10.6841C5.55787 10.2453 5.8779 9.82485 6.2583 9.46541C6.66059 9.08706 7.13611 8.77838 7.65852 8.61942ZM23.8916 4.94419C23.8916 5.39505 23.8646 5.84822 23.8119 6.29353H23.8096C23.7659 6.66477 23.7083 7.03424 23.641 7.40178C23.5681 7.78428 23.4817 8.17621 23.3926 8.54576C23.3799 8.59915 23.3676 8.65085 23.355 8.70424C23.3532 8.71163 23.3511 8.71767 23.3493 8.72321C23.3492 8.72681 23.3477 8.73078 23.3458 8.73438V8.73773C23.3404 8.75062 23.331 8.78001 23.3219 8.83147V8.83594C23.3183 8.84879 23.3142 8.86329 23.3106 8.87611C23.2814 8.98329 23.2524 9.09299 23.2251 9.20201C23.1614 9.15582 23.0958 9.11058 23.0302 9.06808V9.06473C23.0302 9.06473 23.0316 9.06635 23.0302 9.06808C22.8955 8.97942 22.7578 8.89829 22.6212 8.82255C22.3421 8.66834 22.0342 8.5435 21.7497 8.38616C21.6398 8.31062 21.5284 8.23815 21.4147 8.16965C21.3254 8.1007 21.2396 8.02667 21.164 7.93974C20.8728 7.60347 20.786 7.17639 20.8006 6.74777C21.03 6.23967 21.3484 5.77586 21.8272 5.47098C22.4406 5.07929 23.1779 4.96823 23.8916 4.94419ZM13.8393 0.238839C14.8254 0.212019 15.8062 0.307502 16.7491 0.646206C17.5374 0.929949 18.2747 1.38211 18.7955 2.04353C19.2832 2.66337 19.5936 3.43686 19.6282 4.22656C19.6318 4.34218 19.6309 4.4565 19.6237 4.57031C17.5847 3.63418 15.3582 3.16616 13.1227 3.04688C10.9696 2.93245 8.81224 3.14241 6.69352 3.52232C7.17775 3.12662 7.68502 2.75719 8.21794 2.41741C9.89584 1.34763 11.7702 0.622539 13.8393 0.238839ZM24.3018 1.14955C25.1667 1.49867 25.9903 1.91991 26.7707 2.41741C26.9144 2.50904 27.0555 2.60408 27.1956 2.69977C26.7953 2.75102 26.3927 2.77595 25.9834 2.78794C25.877 2.79173 24.4522 2.83563 24.4522 2.79688C24.4513 2.24457 24.4035 1.69121 24.3018 1.14955Z" fill="#C7B08A"/>
</g>
<defs>
<clipPath id="clip0_83_808">
<rect width="35" height="40" fill="white"/>
</clipPath>
</defs>
</svg>
