<svg width="402" height="771" viewBox="0 0 402 771" fill="none" xmlns="http://www.w3.org/2000/svg">
<path d="M284.342 586.745C275.949 566.894 257.537 554.039 239.357 543.331C227.22 536.183 214.36 530.349 202.532 522.672C185.592 511.786 169.917 496.431 165.14 476.454C164.985 475.797 164.855 475.14 164.726 474.458C163.048 465.745 163.022 455.542 164.391 446.576C163.564 452.006 161.189 457.739 159.82 463.169C158.374 468.953 157.134 474.787 156.411 480.697C154.965 492.44 155.869 503.957 160.181 515.044C160.233 515.145 160.259 515.272 160.311 515.373C140.245 522.293 127.256 540.83 121.575 560.176C121.291 561.136 121.033 562.07 120.774 563.03C118.553 571.642 116.023 580.204 114.008 588.892C111.762 598.666 111.271 610.284 115.79 619.552C120 628.114 127.876 634.554 135.752 639.833C148.277 648.268 161.963 653.446 176.192 656.906C174.772 656.552 171.208 660.34 170.072 661.149C158.116 669.559 144.506 675.847 130.226 679.434C120.645 681.833 111.065 682.464 101.226 682.742C99.7538 682.793 79.5079 683.399 79.5079 682.868C79.4821 666.503 76.4865 650.036 68.8169 635.388C63.9103 626.018 57.2737 617.633 50.8435 609.248C44.2326 600.636 37.5185 592.074 29.8746 584.295C16.0847 570.304 -1.11394 559.318 -12.244 542.952C-21.5664 529.238 -25.9822 512.569 -25.1042 496.178C-14.878 477.262 4.36073 463.573 26.0785 459.81C25.123 463.447 24.1934 467.058 23.3154 470.695C21.7918 476.883 20.9654 483.222 20.9912 489.587C20.9912 502.038 24.1675 514.615 30.7784 525.298C37.4926 536.108 47.9254 544.114 57.5577 552.322C61.5604 555.731 65.3307 558.964 68.2746 563.308C71.1927 567.627 73.5684 572.299 75.6343 577.047C78.0876 582.679 80.1277 588.538 81.4705 594.524C82.426 598.767 83.3815 604.096 82.9941 608.617C82.9941 608.541 83.0458 608.44 83.0716 608.364C84.0787 605.056 84.9051 601.697 85.8089 598.388C86.971 594.145 88.2105 589.927 89.2951 585.659C90.3797 581.921 90.6896 580.633 90.2248 581.795C90.2248 581.719 90.2506 581.644 90.2765 581.568C90.6896 579.724 90.8704 577.88 90.8704 576.012C90.8446 571.466 89.9407 566.92 88.7787 562.525C87.2809 556.817 85.2666 551.135 82.7359 545.679C82.1936 544.492 84.776 542.169 85.4216 541.26C86.9193 539.138 88.2105 536.84 89.4501 534.567C94.6923 524.97 97.8686 514.438 100.787 503.982C103.705 493.451 105.667 482.389 104.247 471.478C103.679 467.159 102.569 462.916 100.838 458.926C92.9621 440.666 71.7608 431.852 52.7028 430.261C35.8916 428.872 18.7187 433.039 4.87719 442.56C-3.07653 448.041 -9.79073 455.138 -14.8264 463.27C-19.3197 470.518 -22.3669 478.6 -24.5361 486.783C-27.3251 497.264 -31.1212 507.619 -32.4124 518.429C-34.9173 539.391 -29.4168 561.237 -15.8593 577.83C-9.79071 585.28 -2.27601 591.367 4.82553 597.908C13.6831 606.091 22.928 614.047 30.701 623.189C37.2344 630.892 43.5096 638.797 49.3199 647.005C57.4544 658.497 64.84 670.114 68.1455 683.879C66.157 684.308 64.1169 684.561 62.1802 685.192C56.344 686.783 50.6111 689.283 46.0403 693.223C41.5211 697.087 38.2674 702.063 35.7624 707.367C32.7927 713.731 30.8818 720.5 28.945 727.218C26.4142 736.133 23.9093 745.073 21.6368 754.039C20.8621 757.045 20.1907 760.1 19.855 763.182C19.261 768.511 19.7001 774.143 22.4116 778.916C25.1231 783.664 29.7455 786.695 34.5745 789.119C39.3778 791.519 44.3618 793.564 48.9842 796.317C49.0359 796.342 49.0875 796.368 49.1133 796.393C47.8221 801.217 46.6084 806.066 45.343 810.864C43.0447 819.653 40.9788 828.847 42.1151 837.964C43.0189 845.162 46.531 852.36 53.4259 855.693C59.2104 858.497 65.9762 857.284 70.2372 852.536C72.1481 850.415 73.5168 847.839 74.4981 845.187C75.4794 842.56 76.2025 839.833 76.9514 837.13C79.0947 829.528 81.2381 821.901 83.1749 814.249C84.8276 807.682 85.2408 801.318 82.8392 794.852C79.1722 784.952 71.2185 776.744 62.3093 770.556C67.6548 751.312 73.5168 731.839 76.8481 712.064C88.0556 712.014 99.2115 712.67 110.341 711.054C121.626 709.437 132.602 706.053 142.905 701.305C162.996 692.062 180.427 677.767 194.372 660.947C194.501 660.795 194.63 660.643 194.759 660.492C218.491 664.154 243.076 665.013 266.162 669.66C269.7 670.367 274.581 671.604 275.123 675.746C275.02 674.963 276.311 671.832 276.414 671.503C277.396 668.069 278.351 664.634 279.281 661.174C280.21 657.739 281.166 654.279 282.07 650.844C282.38 649.657 283.283 647.738 283.128 646.526C282.896 644.732 281.863 643.444 280.417 642.51C279.926 642.182 283.877 630.589 284.213 629.276C285.478 624.578 286.563 619.805 287.26 614.981C288.629 605.308 288.164 595.762 284.316 586.669L284.342 586.745ZM28.9966 459.431C40.6948 457.941 52.5995 459.734 63.7038 463.548C74.7047 467.336 85.8348 473.827 90.7929 484.611C92.1616 487.591 93.2978 490.723 94.4857 493.779C95.3637 496.052 96.2159 498.35 96.7065 500.724C97.0423 502.391 97.1972 504.083 97.223 505.801C91.8258 515.625 84.8534 524.641 79.4821 534.466C79.0173 535.299 78.7332 536.587 78.475 537.648C77.9068 536.688 77.3129 535.754 76.719 534.845C71.141 526.334 62.1802 520.575 54.6654 513.832C49.9397 509.589 45.2398 505.195 41.4695 500.093C38.0091 495.421 35.2718 490.218 33.2575 484.788C30.262 476.656 28.8933 468.018 28.9966 459.406V459.431ZM75.4536 825.841C75.1179 826.068 74.7564 826.296 74.369 826.498C69.8498 828.948 64.2461 828.367 59.9335 825.74C51.1276 820.335 49.3199 810.132 49.9139 800.434C50.3529 799.575 50.8177 798.691 51.2825 797.832C55.1044 800.308 58.7456 803.086 62.0768 806.167C67.8614 811.546 73.1553 818.264 75.4536 825.841ZM70.3921 730.652C69.7723 735.729 68.946 740.78 67.9905 745.806C66.9576 751.034 65.7438 756.388 64.4785 761.439C64.2977 762.171 64.1169 762.879 63.9362 763.611C63.9103 763.712 63.8845 763.788 63.8587 763.864C63.8587 763.914 63.8329 763.965 63.8071 764.015C63.8071 764.015 63.8071 764.015 63.8071 764.04C63.8071 764.04 63.8071 764.04 63.8071 764.066C63.7296 764.242 63.6005 764.646 63.4714 765.354C63.4714 765.354 63.4714 765.379 63.4714 765.404C63.4197 765.581 63.3681 765.783 63.3164 765.96C62.9032 767.425 62.4901 768.915 62.1027 770.405C61.1989 769.773 60.2692 769.167 59.3395 768.586C59.3395 768.586 59.3395 768.561 59.3395 768.536C59.3395 768.536 59.3395 768.561 59.3137 768.586C57.4028 767.374 55.466 766.263 53.5292 765.227C46.5568 761.515 38.2673 759.141 32.8702 753.155C28.7384 748.559 27.4988 742.725 27.7054 736.865C30.9592 729.92 35.4784 723.581 42.27 719.413C50.9726 714.059 61.4313 712.544 71.5542 712.216C71.5542 718.378 71.1668 724.566 70.418 730.652H70.3921ZM202.816 631.322C177.509 627.331 150.756 619.578 132.137 601.419C127.411 596.822 123.383 591.291 121.807 584.851C120.852 580.987 120.439 576.946 120.464 572.93C129.503 556.64 145.229 543.23 164.701 542.219C186.832 541.083 203.075 558.282 211.777 576.416C214.747 582.603 217.278 589.094 218.543 595.837C219.24 599.575 219.447 603.262 219.266 606.95C215.186 615.032 209.866 622.558 204.211 629.629C203.772 630.185 203.307 630.766 202.842 631.322H202.816ZM280.391 640.439C280.236 641.045 280.055 641.651 279.9 642.257C276.776 640.515 272.127 640.111 269.313 639.605C262.005 638.317 254.645 637.358 247.285 636.499C235.845 635.186 224.353 634.201 212.914 632.736C215.393 627.079 217.071 621.194 218.724 615.259C221.642 604.854 225.025 594.347 226.678 583.639C227.401 579.017 227.427 574.496 226.91 570.051C240.881 577.678 255.058 586.164 265.387 598.363C275.226 609.955 281.992 625.21 280.365 640.439H280.391Z" fill="#C7B08A" fill-opacity="0.2"/>
<path d="M190.942 702.922C188.179 695.118 179.269 692.744 171.625 693.021C163.491 693.299 155.692 696.38 149.004 700.825C141.024 706.104 134.723 713.403 129.197 721.03C126.408 724.894 123.8 728.859 121.217 732.85C119.952 734.794 118.738 736.764 117.628 738.785C108.59 737.926 98.9315 738.078 90.8229 742.573C86.8718 744.745 83.4372 747.978 81.3455 751.943C80.5192 753.534 79.951 755.201 79.4346 756.918C79.4346 756.918 76.9297 765.859 76 770.556C76 770.506 76.0258 770.455 76.0517 770.43C76.1291 770.228 76.2324 770.051 76.3099 769.849C76.6456 769.167 77.033 768.485 77.4461 767.854C78.5049 766.212 79.7961 764.722 81.2422 763.409C84.1861 760.707 87.8015 758.813 91.6234 757.626C98.1052 755.58 104.923 755.529 111.663 756.11C111.611 756.262 111.585 756.439 111.534 756.59C111.069 758.333 110.604 760.05 110.139 761.793C110.087 761.944 109.7 763.51 109.958 762.677C110.656 760.454 111.585 758.307 112.67 756.186C114.736 756.388 116.802 756.615 118.842 756.893C136.144 759.09 154.685 760.606 170.36 751.488C173.95 749.392 177.1 746.791 180.121 743.987C182.73 741.563 185.157 738.911 186.397 735.552C187.843 731.637 188.747 727.495 189.831 723.48C190.658 720.424 191.742 717.292 191.923 714.11C192.13 710.423 192.052 706.483 190.813 702.972L190.942 702.922ZM184.382 727.117C181.103 730.072 177.668 732.774 173.743 734.87C165.634 739.189 156.364 740.932 147.196 741.184C139.268 741.411 131.521 740.351 123.722 739.416C127.88 733.557 132.425 727.95 137.822 723.151C143.529 718.1 150.269 713.984 157.681 711.862C164.679 709.867 173.149 709.387 179.76 712.948C183.375 714.893 185.725 718.05 186.681 721.939C186.887 722.722 187.042 723.556 187.171 724.414C186.293 725.349 185.364 726.233 184.408 727.091L184.382 727.117Z" fill="#C7B08A" fill-opacity="0.2"/>
<path d="M139.681 428.419C140.714 424.858 141.696 421.247 142.599 417.66C142.703 417.181 142.806 416.701 142.909 416.246C143.323 421.019 145.363 425.717 148.875 429.051C151.121 431.172 154.22 432.763 157.396 432.081C160.702 431.374 163.052 428.672 164.343 425.768C164.705 424.985 164.989 424.151 165.247 423.318C166.564 419.05 167.726 414.731 168.811 410.387C169.25 408.669 169.611 406.927 169.766 405.134C170.076 401.977 169.895 398.794 169.25 395.713C168.604 392.607 167.468 389.576 165.918 386.773C164.343 383.944 162.277 381.494 160.031 379.171C157.758 376.847 155.356 374.549 153.626 371.796C151.767 368.841 150.889 365.406 151.044 361.946C151.07 361.113 151.173 360.305 151.328 359.471C151.328 359.396 151.354 359.295 151.38 359.219C151.56 358.385 151.044 360.229 151.147 359.85C150.786 361.113 150.424 362.376 150.063 363.664C149.598 365.305 149.159 366.947 148.72 368.589C148.461 369.574 148.177 370.533 147.945 371.518C147.144 375.256 147.454 379.171 149.081 382.656C150.605 385.914 153.161 388.515 155.666 391.041C158.171 393.592 160.521 396.193 162.277 399.274C163.982 402.305 165.195 405.588 165.841 408.998C166.254 411.144 166.435 413.316 166.383 415.488C165.66 416.499 164.782 417.383 163.723 418.09C161.554 419.529 158.92 419.832 156.467 418.923C154.039 418.014 152.051 416.221 150.527 414.226C148.926 412.129 147.764 409.73 147.067 407.205C146.266 404.351 146.086 401.345 146.576 398.416C146.499 398.592 146.447 398.769 146.396 398.946C146.266 399.375 146.137 399.83 146.008 400.259C145.569 401.749 145.156 403.265 144.743 404.755C144.33 406.27 143.916 407.76 143.529 409.276C143.374 409.907 143.168 410.513 143.064 411.145C142.909 412.028 142.832 412.938 142.832 413.872C142.445 415.236 142.057 416.6 141.696 417.989C141.334 419.327 140.973 420.666 140.611 422.004C139.991 422.838 139.268 423.596 138.39 424.202C136.737 425.363 134.594 425.995 132.58 425.464C130.436 424.909 128.861 423.166 127.88 421.297C126.821 419.277 126.33 417.029 126.176 414.781C125.814 410.033 126.769 405.26 126.382 400.512C126.279 399.375 126.124 398.214 125.84 397.102C125.556 396.016 125.117 394.905 124.29 394.122C122.741 392.657 120.262 392.708 118.428 393.567C116.027 394.678 114.193 396.926 112.644 398.971C110.965 401.194 109.597 403.593 108.512 406.144C108.28 406.725 108.125 407.407 107.944 407.988C107.505 409.478 107.092 410.993 106.679 412.483C106.265 413.998 105.852 415.488 105.465 417.004C105.387 417.332 105.284 417.66 105.207 418.014C105.129 418.292 105.052 418.595 105 418.898C106.085 416.347 107.453 413.948 109.132 411.725C110.681 409.68 112.515 407.432 114.916 406.321C117.111 405.31 119.978 405.487 121.398 407.609C122.121 408.669 122.405 409.957 122.638 411.195C122.87 412.508 122.973 413.822 122.999 415.16C123.077 420.388 121.915 425.793 123.232 430.945C123.826 433.319 125.013 435.744 127.054 437.208C129.016 438.623 131.495 438.673 133.639 437.663C135.885 436.602 137.486 434.658 138.416 432.435C138.648 431.854 138.855 431.273 139.036 430.692C138.803 431.728 139.036 430.945 139.707 428.419H139.681Z" fill="#C7B08A" fill-opacity="0.2"/>
</svg>
